  0
SECTION
  2
HEADER
  9
$ACADVER
  1
AC1024
  9
$ACADMAINTVER
 70
6
  9
$DWGCODEPAGE
  3
ANSI_1252
  9
$LASTSAVEDBY
  1
ezdxf
  9
$INSBASE
 10
0.0
 20
0.0
 30
0.0
  9
$EXTMIN
 10
1e+20
 20
1e+20
 30
1e+20
  9
$EXTMAX
 10
-1e+20
 20
-1e+20
 30
-1e+20
  9
$LIMMIN
 10
0.0
 20
0.0
  9
$LIMMAX
 10
420.0
 20
297.0
  9
$ORTHOMODE
 70
0
  9
$REGENMODE
 70
1
  9
$FILLMODE
 70
1
  9
$QTEXTMODE
 70
0
  9
$MIRRTEXT
 70
1
  9
$LTSCALE
 40
1.0
  9
$ATTMODE
 70
1
  9
$TEXTSIZE
 40
2.5
  9
$TRACEWID
 40
1.0
  9
$TEXTSTYLE
  7
Standard
  9
$CLAYER
  8
0
  9
$CELTYPE
  6
ByLayer
  9
$CECOLOR
 62
256
  9
$CELTSCALE
 40
1.0
  9
$DISPSILH
 70
0
  9
$DIMSCALE
 40
1.0
  9
$DIMASZ
 40
2.5
  9
$DIMEXO
 40
0.625
  9
$DIMDLI
 40
3.75
  9
$DIMRND
 40
0.0
  9
$DIMDLE
 40
0.0
  9
$DIMEXE
 40
1.25
  9
$DIMTP
 40
0.0
  9
$DIMTM
 40
0.0
  9
$DIMTXT
 40
2.5
  9
$DIMCEN
 40
2.5
  9
$DIMTSZ
 40
0.0
  9
$DIMTOL
 70
0
  9
$DIMLIM
 70
0
  9
$DIMTIH
 70
0
  9
$DIMTOH
 70
0
  9
$DIMSE1
 70
0
  9
$DIMSE2
 70
0
  9
$DIMTAD
 70
1
  9
$DIMZIN
 70
8
  9
$DIMBLK
  1

  9
$DIMASO
 70
1
  9
$DIMSHO
 70
1
  9
$DIMPOST
  1

  9
$DIMAPOST
  1

  9
$DIMALT
 70
0
  9
$DIMALTD
 70
3
  9
$DIMALTF
 40
0.03937007874
  9
$DIMLFAC
 40
1.0
  9
$DIMTOFL
 70
1
  9
$DIMTVP
 40
0.0
  9
$DIMTIX
 70
0
  9
$DIMSOXD
 70
0
  9
$DIMSAH
 70
0
  9
$DIMBLK1
  1

  9
$DIMBLK2
  1

  9
$DIMSTYLE
  2
ISO-25
  9
$DIMCLRD
 70
0
  9
$DIMCLRE
 70
0
  9
$DIMCLRT
 70
0
  9
$DIMTFAC
 40
1.0
  9
$DIMGAP
 40
0.625
  9
$DIMJUST
 70
0
  9
$DIMSD1
 70
0
  9
$DIMSD2
 70
0
  9
$DIMTOLJ
 70
0
  9
$DIMTZIN
 70
8
  9
$DIMALTZ
 70
0
  9
$DIMALTTZ
 70
0
  9
$DIMUPT
 70
0
  9
$DIMDEC
 70
2
  9
$DIMTDEC
 70
2
  9
$DIMALTU
 70
2
  9
$DIMALTTD
 70
3
  9
$DIMTXSTY
  7
Standard
  9
$DIMAUNIT
 70
0
  9
$DIMADEC
 70
0
  9
$DIMALTRND
 40
0.0
  9
$DIMAZIN
 70
0
  9
$DIMDSEP
 70
44
  9
$DIMATFIT
 70
3
  9
$DIMFRAC
 70
0
  9
$DIMLDRBLK
  1

  9
$DIMLUNIT
 70
2
  9
$DIMLWD
 70
-2
  9
$DIMLWE
 70
-2
  9
$DIMTMOVE
 70
0
  9
$DIMFXL
 40
1.0
  9
$DIMFXLON
 70
0
  9
$DIMJOGANG
 40
0.785398163397
  9
$DIMTFILL
 70
0
  9
$DIMTFILLCLR
 70
0
  9
$DIMARCSYM
 70
0
  9
$DIMLTYPE
  6

  9
$DIMLTEX1
  6

  9
$DIMLTEX2
  6

  9
$DIMTXTDIRECTION
 70
0
  9
$LUNITS
 70
2
  9
$LUPREC
 70
4
  9
$SKETCHINC
 40
1.0
  9
$FILLETRAD
 40
10.0
  9
$AUNITS
 70
0
  9
$AUPREC
 70
2
  9
$MENU
  1
.
  9
$ELEVATION
 40
0.0
  9
$PELEVATION
 40
0.0
  9
$THICKNESS
 40
0.0
  9
$LIMCHECK
 70
0
  9
$CHAMFERA
 40
0.0
  9
$CHAMFERB
 40
0.0
  9
$CHAMFERC
 40
0.0
  9
$CHAMFERD
 40
0.0
  9
$SKPOLY
 70
0
  9
$TDCREATE
 40
2459885.8804513887
  9
$TDUCREATE
 40
2458532.153996898
  9
$TDUPDATE
 40
2459885.8804513887
  9
$TDUUPDATE
 40
2458532.1544311
  9
$TDINDWG
 40
0.0
  9
$TDUSRTIMER
 40
0.0
  9
$USRTIMER
 70
1
  9
$ANGBASE
 50
0.0
  9
$ANGDIR
 70
0
  9
$PDMODE
 70
0
  9
$PDSIZE
 40
0.0
  9
$PLINEWID
 40
0.0
  9
$SPLFRAME
 70
0
  9
$SPLINETYPE
 70
6
  9
$SPLINESEGS
 70
8
  9
$HANDSEED
  5
33
  9
$SURFTAB1
 70
6
  9
$SURFTAB2
 70
6
  9
$SURFTYPE
 70
6
  9
$SURFU
 70
6
  9
$SURFV
 70
6
  9
$UCSBASE
  2

  9
$UCSNAME
  2

  9
$UCSORG
 10
0.0
 20
0.0
 30
0.0
  9
$UCSXDIR
 10
1.0
 20
0.0
 30
0.0
  9
$UCSYDIR
 10
0.0
 20
1.0
 30
0.0
  9
$UCSORTHOREF
  2

  9
$UCSORTHOVIEW
 70
0
  9
$UCSORGTOP
 10
0.0
 20
0.0
 30
0.0
  9
$UCSORGBOTTOM
 10
0.0
 20
0.0
 30
0.0
  9
$UCSORGLEFT
 10
0.0
 20
0.0
 30
0.0
  9
$UCSORGRIGHT
 10
0.0
 20
0.0
 30
0.0
  9
$UCSORGFRONT
 10
0.0
 20
0.0
 30
0.0
  9
$UCSORGBACK
 10
0.0
 20
0.0
 30
0.0
  9
$PUCSBASE
  2

  9
$PUCSNAME
  2

  9
$PUCSORG
 10
0.0
 20
0.0
 30
0.0
  9
$PUCSXDIR
 10
1.0
 20
0.0
 30
0.0
  9
$PUCSYDIR
 10
0.0
 20
1.0
 30
0.0
  9
$PUCSORTHOREF
  2

  9
$PUCSORTHOVIEW
 70
0
  9
$PUCSORGTOP
 10
0.0
 20
0.0
 30
0.0
  9
$PUCSORGBOTTOM
 10
0.0
 20
0.0
 30
0.0
  9
$PUCSORGLEFT
 10
0.0
 20
0.0
 30
0.0
  9
$PUCSORGRIGHT
 10
0.0
 20
0.0
 30
0.0
  9
$PUCSORGFRONT
 10
0.0
 20
0.0
 30
0.0
  9
$PUCSORGBACK
 10
0.0
 20
0.0
 30
0.0
  9
$USERI1
 70
0
  9
$USERI2
 70
0
  9
$USERI3
 70
0
  9
$USERI4
 70
0
  9
$USERI5
 70
0
  9
$USERR1
 40
0.0
  9
$USERR2
 40
0.0
  9
$USERR3
 40
0.0
  9
$USERR4
 40
0.0
  9
$USERR5
 40
0.0
  9
$WORLDVIEW
 70
1
  9
$SHADEDGE
 70
3
  9
$SHADEDIF
 70
70
  9
$TILEMODE
 70
1
  9
$MAXACTVP
 70
64
  9
$PINSBASE
 10
0.0
 20
0.0
 30
0.0
  9
$PLIMCHECK
 70
0
  9
$PEXTMIN
 10
1e+20
 20
1e+20
 30
1e+20
  9
$PEXTMAX
 10
-1e+20
 20
-1e+20
 30
-1e+20
  9
$PLIMMIN
 10
0.0
 20
0.0
  9
$PLIMMAX
 10
420.0
 20
297.0
  9
$UNITMODE
 70
0
  9
$VISRETAIN
 70
1
  9
$PLINEGEN
 70
0
  9
$PSLTSCALE
 70
1
  9
$TREEDEPTH
 70
3020
  9
$CMLSTYLE
  2
Standard
  9
$CMLJUST
 70
0
  9
$CMLSCALE
 40
20.0
  9
$PROXYGRAPHICS
 70
1
  9
$MEASUREMENT
 70
1
  9
$CELWEIGHT
370
-1
  9
$ENDCAPS
280
0
  9
$JOINSTYLE
280
0
  9
$LWDISPLAY
290
0
  9
$INSUNITS
 70
6
  9
$HYPERLINKBASE
  1

  9
$STYLESHEET
  1

  9
$XEDIT
290
1
  9
$CEPSNTYPE
380
0
  9
$PSTYLEMODE
290
1
  9
$FINGERPRINTGUID
  2
{12809CD9-DE2D-4333-B9CB-913E9522A79B}
  9
$VERSIONGUID
  2
{7131EDF0-710D-43C2-B34F-F3F486FA718B}
  9
$EXTNAMES
290
1
  9
$PSVPSCALE
 40
0.0
  9
$OLESTARTUP
290
0
  9
$SORTENTS
280
127
  9
$INDEXCTL
280
0
  9
$HIDETEXT
280
1
  9
$XCLIPFRAME
280
0
  9
$HALOGAP
280
0
  9
$OBSCOLOR
 70
257
  9
$OBSLTYPE
280
0
  9
$INTERSECTIONDISPLAY
280
0
  9
$INTERSECTIONCOLOR
 70
257
  9
$DIMASSOC
280
2
  9
$PROJECTNAME
  1

  9
$CAMERADISPLAY
290
0
  9
$LENSLENGTH
 40
50.0
  9
$CAMERAHEIGHT
 40
0.0
  9
$STEPSPERSEC
 40
24.0
  9
$STEPSIZE
 40
100.0
  9
$3DDWFPREC
 40
2.0
  9
$PSOLWIDTH
 40
0.005
  9
$PSOLHEIGHT
 40
0.08
  9
$LOFTANG1
 40
1.570796326795
  9
$LOFTANG2
 40
1.570796326795
  9
$LOFTMAG1
 40
0.0
  9
$LOFTMAG2
 40
0.0
  9
$LOFTPARAM
 70
7
  9
$LOFTNORMALS
280
1
  9
$LATITUDE
 40
37.795
  9
$LONGITUDE
 40
-122.394
  9
$NORTHDIRECTION
 40
0.0
  9
$TIMEZONE
 70
-8000
  9
$LIGHTGLYPHDISPLAY
280
1
  9
$TILEMODELIGHTSYNCH
280
1
  9
$CMATERIAL
347
20
  9
$SOLIDHIST
280
0
  9
$SHOWHIST
280
1
  9
$DWFFRAME
280
2
  9
$DGNFRAME
280
2
  9
$REALWORLDSCALE
290
1
  9
$INTERFERECOLOR
 62
256
  9
$CSHADOW
280
0
  9
$SHADOWPLANELOCATION
 40
0.0
  0
ENDSEC
  0
SECTION
  2
CLASSES
  0
CLASS
  1
ACDBDICTIONARYWDFLT
  2
AcDbDictionaryWithDefault
  3
ObjectDBX Classes
 90
0
 91
0
280
0
281
0
  0
CLASS
  1
SUN
  2
AcDbSun
  3
SCENEOE
 90
1153
 91
0
280
0
281
0
  0
CLASS
  1
VISUALSTYLE
  2
AcDbVisualStyle
  3
ObjectDBX Classes
 90
4095
 91
0
280
0
281
0
  0
CLASS
  1
MATERIAL
  2
AcDbMaterial
  3
ObjectDBX Classes
 90
1153
 91
0
280
0
281
0
  0
CLASS
  1
SCALE
  2
AcDbScale
  3
ObjectDBX Classes
 90
1153
 91
0
280
0
281
0
  0
CLASS
  1
TABLESTYLE
  2
AcDbTableStyle
  3
ObjectDBX Classes
 90
4095
 91
0
280
0
281
0
  0
CLASS
  1
MLEADERSTYLE
  2
AcDbMLeaderStyle
  3
ACDB_MLEADERSTYLE_CLASS
 90
4095
 91
0
280
0
281
0
  0
CLASS
  1
DICTIONARYVAR
  2
AcDbDictionaryVar
  3
ObjectDBX Classes
 90
0
 91
0
280
0
281
0
  0
CLASS
  1
CELLSTYLEMAP
  2
AcDbCellStyleMap
  3
ObjectDBX Classes
 90
1152
 91
0
280
0
281
0
  0
CLASS
  1
MENTALRAYRENDERSETTINGS
  2
AcDbMentalRayRenderSettings
  3
SCENEOE
 90
1024
 91
0
280
0
281
0
  0
CLASS
  1
ACDBDETAILVIEWSTYLE
  2
AcDbDetailViewStyle
  3
ObjectDBX Classes
 90
1025
 91
0
280
0
281
0
  0
CLASS
  1
ACDBSECTIONVIEWSTYLE
  2
AcDbSectionViewStyle
  3
ObjectDBX Classes
 90
1025
 91
0
280
0
281
0
  0
CLASS
  1
RASTERVARIABLES
  2
AcDbRasterVariables
  3
ISM
 90
0
 91
0
280
0
281
0
  0
CLASS
  1
LAYOUT
  2
AcDbLayout
  3
ObjectDBX Classes
 90
0
 91
0
280
0
281
0
  0
CLASS
  1
ACDBPLACEHOLDER
  2
AcDbPlaceHolder
  3
ObjectDBX Classes
 90
0
 91
0
280
0
281
0
  0
ENDSEC
  0
SECTION
  2
TABLES
  0
TABLE
  2
VPORT
  5
8
330
0
100
AcDbSymbolTable
 70
1
  0
VPORT
  5
23
330
8
100
AcDbSymbolTableRecord
100
AcDbViewportTableRecord
  2
*Active
 70
0
 10
0.0
 20
0.0
 11
1.0
 21
1.0
 12
0.0
 22
0.0
 13
0.0
 23
0.0
 14
0.5
 24
0.5
 15
0.5
 25
0.5
 16
0.0
 26
0.0
 36
1.0
 17
0.0
 27
0.0
 37
0.0
 40
1000.0
 41
1.34
 42
50.0
 43
0.0
 44
0.0
 50
0.0
 51
0.0
 71
0
 72
1000
 73
1
 74
3
 75
0
 76
0
 77
0
 78
0
281
0
 65
0
146
0.0
  0
ENDTAB
  0
TABLE
  2
LTYPE
  5
2
330
0
100
AcDbSymbolTable
 70
3
  0
LTYPE
  5
24
330
2
100
AcDbSymbolTableRecord
100
AcDbLinetypeTableRecord
  2
ByBlock
 70
0
  3

 72
65
 73
0
 40
0.0
  0
LTYPE
  5
25
330
2
100
AcDbSymbolTableRecord
100
AcDbLinetypeTableRecord
  2
ByLayer
 70
0
  3

 72
65
 73
0
 40
0.0
  0
LTYPE
  5
26
330
2
100
AcDbSymbolTableRecord
100
AcDbLinetypeTableRecord
  2
Continuous
 70
0
  3

 72
65
 73
0
 40
0.0
  0
ENDTAB
  0
TABLE
  2
LAYER
  5
1
330
0
100
AcDbSymbolTable
 70
2
  0
LAYER
  5
27
330
1
100
AcDbSymbolTableRecord
100
AcDbLayerTableRecord
  2
0
 70
0
 62
7
  6
Continuous
370
-3
390
13
347
21
  0
LAYER
  5
28
330
1
100
AcDbSymbolTableRecord
100
AcDbLayerTableRecord
  2
Defpoints
 70
0
 62
7
  6
Continuous
290
0
370
-3
390
13
347
21
  0
ENDTAB
  0
TABLE
  2
STYLE
  5
5
330
0
100
AcDbSymbolTable
 70
1
  0
STYLE
  5
29
330
5
100
AcDbSymbolTableRecord
100
AcDbTextStyleTableRecord
  2
Standard
 70
0
 40
0.0
 41
1.0
 50
0.0
 71
0
 42
2.5
  3
txt
  4

  0
ENDTAB
  0
TABLE
  2
VIEW
  5
7
330
0
100
AcDbSymbolTable
 70
0
  0
ENDTAB
  0
TABLE
  2
UCS
  5
6
330
0
100
AcDbSymbolTable
 70
0
  0
ENDTAB
  0
TABLE
  2
APPID
  5
3
330
0
100
AcDbSymbolTable
 70
3
  0
APPID
  5
2A
330
3
100
AcDbSymbolTableRecord
100
AcDbRegAppTableRecord
  2
ACAD
 70
0
  0
APPID
  5
30
330
3
100
AcDbSymbolTableRecord
100
AcDbRegAppTableRecord
  2
HATCHBACKGROUNDCOLOR
 70
0
  0
APPID
  5
31
330
3
100
AcDbSymbolTableRecord
100
AcDbRegAppTableRecord
  2
EZDXF
 70
0
  0
ENDTAB
  0
TABLE
  2
DIMSTYLE
  5
4
330
0
100
AcDbSymbolTable
 70
1
100
AcDbDimStyleTable
  0
DIMSTYLE
105
2B
330
4
100
AcDbSymbolTableRecord
100
AcDbDimStyleTableRecord
  2
Standard
 70
0
 40
1.0
 41
2.5
 42
0.625
 43
3.75
 44
1.25
 45
0.0
 46
0.0
 47
0.0
 48
0.0
 49
2.5
140
2.5
141
2.5
142
0.0
143
0.03937007874
144
1.0
145
0.0
146
1.0
147
0.625
148
0.0
 69
0
 70
0
 71
0
 72
0
 73
0
 74
0
 75
0
 76
0
 77
1
 78
8
 79
3
170
0
171
3
172
1
173
0
174
0
175
0
176
0
177
0
178
0
179
2
271
2
272
2
273
2
274
3
275
0
276
0
277
2
278
44
279
0
280
0
281
0
282
0
283
0
284
8
285
0
286
0
288
0
289
3
290
0
371
-2
372
-2
  0
ENDTAB
  0
TABLE
  2
BLOCK_RECORD
  5
9
330
0
100
AcDbSymbolTable
 70
2
  0
BLOCK_RECORD
  5
17
330
9
100
AcDbSymbolTableRecord
100
AcDbBlockTableRecord
  2
*Model_Space
340
1A
 70
0
280
1
281
0
  0
BLOCK_RECORD
  5
1B
330
9
100
AcDbSymbolTableRecord
100
AcDbBlockTableRecord
  2
*Paper_Space
340
1E
 70
0
280
1
281
0
  0
ENDTAB
  0
ENDSEC
  0
SECTION
  2
BLOCKS
  0
BLOCK
  5
18
330
17
100
AcDbEntity
  8
0
100
AcDbBlockBegin
  2
*Model_Space
 70
0
 10
0.0
 20
0.0
 30
0.0
  3
*Model_Space
  1

  0
ENDBLK
  5
19
330
17
100
AcDbEntity
  8
0
100
AcDbBlockEnd
  0
BLOCK
  5
1C
330
1B
100
AcDbEntity
  8
0
100
AcDbBlockBegin
  2
*Paper_Space
 70
0
 10
0.0
 20
0.0
 30
0.0
  3
*Paper_Space
  1

  0
ENDBLK
  5
1D
330
1B
100
AcDbEntity
  8
0
100
AcDbBlockEnd
  0
ENDSEC
  0
SECTION
  2
ENTITIES
  0
LWPOLYLINE
  5
2F
330
17
100
AcDbEntity
  8
0
100
AcDbPolyline
 90
231
 70
1
 10
-78.15063834070125
 20
0.0
 10
-78.52969274721883
 20
5.193880217808626
 10
-78.52969274721883
 20
5.193880217808626
 10
-77.82268290776157
 20
10.405107075788308
 10
-77.82268290776157
 20
10.405107075788308
 10
-76.63091103136075
 20
20.0
 10
-86.63091103136075
 20
20.0
 10
-86.63091103136075
 20
23.0
 10
-76.25047777650113
 20
23.0
 10
-75.80524674378434
 20
26.46929292086
 10
-75.80524674378434
 20
26.46929292086
 10
-74.21006301786726
 20
35.50801625101384
 10
-74.21006301786726
 20
35.50801625101384
 10
-74.08468596015713
 20
39.55612586165744
 10
-74.08468596015713
 20
39.55612586165744
 10
-73.98067252791394
 20
42.22385714285714
 10
-83.98067252791394
 20
42.22385714285714
 10
-83.98067252791394
 20
45.22385714285714
 10
-73.86370411399285
 20
45.22385714285714
 10
-73.78802753506928
 20
47.16480623466836
 10
-73.78802753506928
 20
47.16480623466836
 10
-73.99408360096376
 20
50.74037577912809
 10
-73.99408360096376
 20
50.74037577912809
 10
-74.5259381697461
 20
57.77655670792385
 10
-74.5259381697461
 20
57.77655670792385
 10
-75.40708888926845
 20
64.22680511718272
 10
-75.40708888926845
 20
64.22680511718272
 10
-75.42088363849473
 20
64.44771428571428
 10
-85.42088363849473
 20
64.44771428571428
 10
-85.42088363849473
 20
67.44771428571428
 10
-75.6082196732728
 20
67.44771428571428
 10
-75.65063616493309
 20
68.12697215050052
 10
-75.65063616493309
 20
68.12697215050052
 10
-77.02750634121192
 20
74.74498708229889
 10
-77.02750634121192
 20
74.74498708229889
 10
-77.6406661130108
 20
79.34262090353889
 10
-77.6406661130108
 20
79.34262090353889
 10
-79.4374649469698
 20
86.54412865374258
 10
-79.4374649469698
 20
86.54412865374258
 10
-79.4630857880111
 20
86.67157142857144
 10
-89.4630857880111
 20
86.67157142857144
 10
-89.4630857880111
 20
89.67157142857144
 10
-80.06619979919853
 20
89.67157142857144
 10
-80.57834341201838
 20
92.21906793828533
 10
-80.57834341201838
 20
92.21906793828533
 10
-81.99246710814849
 20
98.03731077808511
 10
-81.99246710814849
 20
98.03731077808511
 10
-83.57664194166568
 20
108.5051892971806
 10
-83.57664194166568
 20
108.5051892971806
 10
-83.57292910939938
 20
108.89542857142858
 10
-93.57292910939938
 20
108.89542857142858
 10
-93.57292910939938
 20
111.89542857142858
 10
-83.54438637284271
 20
111.89542857142858
 10
-83.53679730218249
 20
112.69308201070002
 10
-83.53679730218249
 20
112.69308201070002
 10
-85.94300471884979
 20
128.54863351474796
 10
-85.94300471884979
 20
128.54863351474796
 10
-86.11862699441637
 20
131.11928571428572
 10
-96.11862699441637
 20
131.11928571428572
 10
-96.11862699441637
 20
134.11928571428572
 10
-86.3235815296096
 20
134.11928571428572
 10
-86.48888936450659
 20
136.53896139613096
 10
-86.48888936450659
 20
136.53896139613096
 10
-86.65537233451359
 20
142.4197836567306
 10
-86.65537233451359
 20
142.4197836567306
 10
-86.71876459321838
 20
142.91935593294696
 10
-86.71876459321838
 20
142.91935593294696
 10
-86.82743594000699
 20
143.30161876085518
 10
-86.82743594000699
 20
143.30161876085518
 10
-88.35921950049878
 20
150.43008053330263
 10
-88.35921950049878
 20
150.43008053330263
 10
-88.75289764973849
 20
152.48341617167853
 10
-88.75289764973849
 20
152.48341617167853
 10
-88.80118139689358
 20
152.62799153965375
 10
-88.80118139689358
 20
152.62799153965375
 10
-88.94775572038554
 20
153.34314285714288
 10
-98.94775572038554
 20
153.34314285714288
 10
-98.94775572038554
 20
156.34314285714288
 10
-89.56262275582603
 20
156.34314285714288
 10
-89.82957893379239
 20
157.64564972080225
 10
-89.82957893379239
 20
157.64564972080225
 10
-90.22805371918109
 20
158.70481633683167
 10
-90.22805371918109
 20
158.70481633683167
 10
-90.91135148523908
 20
161.4675237226732
 10
-90.91135148523908
 20
161.4675237226732
 10
-91.41682294967859
 20
163.04406263601584
 10
-91.41682294967859
 20
163.04406263601584
 10
-91.66939583658488
 20
164.24519172938778
 10
-91.66939583658488
 20
164.24519172938778
 10
-92.11910303915379
 20
166.12555739707688
 10
-92.11910303915379
 20
166.12555739707688
 10
-92.12577402405319
 20
166.16572732859095
 10
-92.12577402405319
 20
166.16572732859095
 10
-92.14100773322889
 20
166.2226400786376
 10
-92.14100773322889
 20
166.2226400786376
 10
-92.51613658090498
 20
168.3406517329504
 10
-92.51613658090498
 20
168.3406517329504
 10
-92.73512753219579
 20
169.87972770015486
 10
-92.73512753219579
 20
169.87972770015486
 10
-92.74533943560888
 20
169.96521412657592
 10
-92.74533943560888
 20
169.96521412657592
 10
-92.76464465736099
 20
170.14320804454445
 10
-92.76464465736099
 20
170.14320804454445
 10
-92.93616191265369
 20
172.13866247302167
 10
-92.93616191265369
 20
172.13866247302167
 10
-92.99310676170678
 20
172.71552876624168
 10
-92.99310676170678
 20
172.71552876624168
 10
-93.12634264797909
 20
174.50083475516732
 10
-93.12634264797909
 20
174.50083475516732
 10
-93.17548247279488
 20
175.18320447675347
 10
-93.17548247279488
 20
175.18320447675347
 10
-93.20304257978293
 20
175.567
 10
-103.20304257978293
 20
175.567
 10
-103.20304257978293
 20
178.567
 10
-93.41328555103374
 20
178.567
 10
-93.57041080149179
 20
181.39500251538993
 10
-93.57041080149179
 20
181.39500251538993
 10
-93.71656354733649
 20
184.18534367252164
 10
-93.71656354733649
 20
184.18534367252164
 10
-93.73079651035539
 20
185.3180946067523
 10
-93.73079651035539
 20
185.3180946067523
 10
-93.71393636346208
 20
185.7914838571911
 10
-93.71393636346208
 20
185.7914838571911
 10
-93.70207380434078
 20
188.66783801889426
 10
-93.70207380434078
 20
188.66783801889426
 10
-93.56984895636079
 20
190.18382380751729
 10
-93.56984895636079
 20
190.18382380751729
 10
-93.41169099956959
 20
192.50016778162484
 10
-93.41169099956959
 20
192.50016778162484
 10
-93.17977124268589
 20
195.08258196827427
 10
-93.17977124268589
 20
195.08258196827427
 10
-92.95833473779768
 20
196.8968896501068
 10
-92.95833473779768
 20
196.8968896501068
 10
-92.85918097244189
 20
197.79085714285716
 10
-102.85918097244189
 20
197.79085714285716
 10
-102.85918097244189
 20
200.79085714285716
 10
-92.52643811715949
 20
200.79085714285716
 10
-92.52000707493889
 20
200.8488392342996
 10
-92.52000707493889
 20
200.8488392342996
 10
-90.90229270848488
 20
207.3146496680773
 10
-90.90229270848488
 20
207.3146496680773
 10
-90.75042839181509
 20
207.9594334071247
 10
-90.75042839181509
 20
207.9594334071247
 10
-89.91467936936769
 20
210.0834781879287
 10
-89.91467936936769
 20
210.0834781879287
 10
-86.61648146937918
 20
215.9163193273059
 10
-86.61648146937918
 20
215.9163193273059
 10
-84.99555750787998
 20
218.067380092364
 10
-84.99555750787998
 20
218.067380092364
 10
-83.54535024704515
 20
220.01471428571432
 10
-93.54535024704515
 20
220.01471428571432
 10
-93.54535024704515
 20
223.01471428571432
 10
-81.31120790139084
 20
223.01471428571432
 10
-79.84217833147528
 20
224.98732302227
 10
-79.84217833147528
 20
224.98732302227
 10
-74.51570018849705
 20
231.154204969829
 10
-74.51570018849705
 20
231.154204969829
 10
-70.97102798441155
 20
235.5741422664541
 10
-70.97102798441155
 20
235.5741422664541
 10
-65.85622864505345
 20
242.23857142857145
 10
-75.85622864505345
 20
242.23857142857145
 10
-75.85622864505345
 20
245.23857142857145
 10
-63.553796186877356
 20
245.23857142857145
 10
-63.27903886635734
 20
245.5965719243658
 10
-63.27903886635734
 20
245.5965719243658
 10
-60.062515386647945
 20
250.0377213617168
 10
-60.062515386647945
 20
250.0377213617168
 10
-52.828706943802814
 20
259.6584914709658
 10
-52.828706943802814
 20
259.6584914709658
 10
-49.081440481928816
 20
264.46242857142863
 10
-59.081440481928816
 20
264.46242857142863
 10
-59.081440481928816
 20
267.46242857142863
 10
-47.406175070951036
 20
267.46242857142863
 10
-44.072838922528305
 20
274.2008137530043
 10
-44.072838922528305
 20
274.2008137530043
 10
-41.818363253252585
 20
279.1104139059744
 10
-41.818363253252585
 20
279.1104139059744
 10
-32.33171594281404
 20
286.64868547803746
 10
-32.33171594281404
 20
286.64868547803746
 10
-32.29207820585212
 20
286.68628571428576
 10
-42.29207820585212
 20
286.68628571428576
 10
-42.29207820585212
 20
289.68628571428576
 10
-29.824493282872044
 20
289.68628571428576
 10
-28.02124161822618
 20
293.1280929699633
 10
-28.02124161822618
 20
293.1280929699633
 10
-25.982592349108646
 20
297.02655261762993
 10
-25.982592349108646
 20
297.02655261762993
 10
-24.856694849583587
 20
302.9234791421182
 10
-24.856694849583587
 20
302.9234791421182
 10
-24.520383229354298
 20
303.8198454661766
 10
-24.520383229354298
 20
303.8198454661766
 10
-24.038863782693337
 20
306.8043178565958
 10
-24.038863782693337
 20
306.8043178565958
 10
-23.653287820125197
 20
308.9101428571429
 10
-33.6532878201252
 20
308.9101428571429
 10
-33.6532878201252
 20
311.9101428571429
 10
-23.093055961645714
 20
311.9101428571429
 10
-22.665795095456307
 20
314.0510969044027
 10
-22.665795095456307
 20
314.0510969044027
 10
-21.135052412983466
 20
319.4133951425975
 10
-21.135052412983466
 20
319.4133951425975
 10
-19.444047995367843
 20
326.3325288620997
 10
-19.444047995367843
 20
326.3325288620997
 10
-18.63811353274087
 20
329.48234391889116
 10
-18.63811353274087
 20
329.48234391889116
 10
-18.43796221927101
 20
331.1339999999998
 10
-18.43796221927101
 20
331.134
 10
-18.43796221927101
 20
361.134
 10
-55.0
 20
391.134
 10
-49.0
 20
391.134
 10
-49.0
 20
396.134
 10
-41.0
 20
396.134
 10
-41.0
 20
391.134
 10
-19.0
 20
391.134
 10
-19.0
 20
396.134
 10
-11.0
 20
396.134
 10
-11.0
 20
391.134
 10
0.0
 20
391.134
 10
0.0
 20
331.134
 10
0.0
 20
0.0
 10
0.0
 20
-90.0
 10
-67.5
 20
-90.0
 10
-67.5
 20
-95.0
 10
-72.5
 20
-95.0
 10
-72.5
 20
-90.0
 10
-112.5
 20
-90.0
 10
-112.5
 20
-95.0
 10
-117.5
 20
-95.0
 10
-117.5
 20
-90.0
 10
-130.0
 20
-90.0
 10
-93.73079651035539
 20
-40.0
  0
ENDSEC
  0
SECTION
  2
OBJECTS
  0
DICTIONARY
  5
A
330
0
100
AcDbDictionary
281
1
  3
ACAD_COLOR
350
B
  3
ACAD_GROUP
350
C
  3
ACAD_LAYOUT
350
D
  3
ACAD_MATERIAL
350
E
  3
ACAD_MLEADERSTYLE
350
F
  3
ACAD_MLINESTYLE
350
10
  3
ACAD_PLOTSETTINGS
350
11
  3
ACAD_PLOTSTYLENAME
350
12
  3
ACAD_SCALELIST
350
14
  3
ACAD_TABLESTYLE
350
15
  3
ACAD_VISUALSTYLE
350
16
  3
EZDXF_META
350
2D
  0
DICTIONARY
  5
B
330
A
100
AcDbDictionary
281
1
  0
DICTIONARY
  5
C
330
A
100
AcDbDictionary
281
1
  0
DICTIONARY
  5
D
330
A
100
AcDbDictionary
281
1
  3
Model
350
1A
  3
Layout1
350
1E
  0
DICTIONARY
  5
E
330
A
100
AcDbDictionary
281
1
  3
ByBlock
350
1F
  3
ByLayer
350
20
  3
Global
350
21
  0
DICTIONARY
  5
F
330
A
100
AcDbDictionary
281
1
  3
Standard
350
2C
  0
DICTIONARY
  5
10
330
A
100
AcDbDictionary
281
1
  3
Standard
350
22
  0
DICTIONARY
  5
11
330
A
100
AcDbDictionary
281
1
  0
ACDBDICTIONARYWDFLT
  5
12
330
A
100
AcDbDictionary
281
1
  3
Normal
350
13
100
AcDbDictionaryWithDefault
340
13
  0
ACDBPLACEHOLDER
  5
13
330
12
  0
DICTIONARY
  5
14
330
A
100
AcDbDictionary
281
1
  0
DICTIONARY
  5
15
330
A
100
AcDbDictionary
281
1
  0
DICTIONARY
  5
16
330
A
100
AcDbDictionary
281
1
  0
LAYOUT
  5
1A
330
D
100
AcDbPlotSettings
  1

  2
Adobe PDF
  4
A3
  6

 40
7.5
 41
20.0
 42
7.5
 43
20.0
 44
420.0
 45
297.0
 46
0.0
 47
0.0
 48
0.0
 49
0.0
140
0.0
141
0.0
142
1.0
143
1.0
 70
1024
 72
1
 73
1
 74
5
  7

 75
16
 76
0
 77
2
 78
300
147
1.0
148
0.0
149
0.0
100
AcDbLayout
  1
Model
 70
1
 71
0
 10
0.0
 20
0.0
 11
420.0
 21
297.0
 12
0.0
 22
0.0
 32
0.0
 14
1e+20
 24
1e+20
 34
1e+20
 15
-1e+20
 25
-1e+20
 35
-1e+20
146
0.0
 13
0.0
 23
0.0
 33
0.0
 16
1.0
 26
0.0
 36
0.0
 17
0.0
 27
1.0
 37
0.0
 76
1
330
17
  0
LAYOUT
  5
1E
330
D
100
AcDbPlotSettings
  1

  2
Adobe PDF
  4
A3
  6

 40
7.5
 41
20.0
 42
7.5
 43
20.0
 44
420.0
 45
297.0
 46
0.0
 47
0.0
 48
0.0
 49
0.0
140
0.0
141
0.0
142
1.0
143
1.0
 70
0
 72
1
 73
1
 74
5
  7

 75
16
 76
0
 77
2
 78
300
147
1.0
148
0.0
149
0.0
100
AcDbLayout
  1
Layout1
 70
1
 71
1
 10
0.0
 20
0.0
 11
420.0
 21
297.0
 12
0.0
 22
0.0
 32
0.0
 14
1e+20
 24
1e+20
 34
1e+20
 15
-1e+20
 25
-1e+20
 35
-1e+20
146
0.0
 13
0.0
 23
0.0
 33
0.0
 16
1.0
 26
0.0
 36
0.0
 17
0.0
 27
1.0
 37
0.0
 76
1
330
1B
  0
MATERIAL
  5
1F
102
{ACAD_REACTORS
330
E
102
}
330
E
100
AcDbMaterial
  1
ByBlock
  2

 70
0
 40
1.0
 71
1
 41
1.0
 91
-1023410177
 42
1.0
 72
1
  3

 73
1
 74
1
 75
1
 44
0.5
 73
0
 45
1.0
 46
1.0
 77
1
  4

 78
1
 79
1
170
1
 48
1.0
171
1
  6

172
1
173
1
174
1
140
1.0
141
1.0
175
1
  7

176
1
177
1
178
1
143
1.0
179
1
  8

270
1
271
1
272
1
145
1.0
146
1.0
273
1
  9

274
1
275
1
276
1
 42
1.0
 72
1
  3

 73
1
 74
1
 75
1
 94
63
  0
MATERIAL
  5
20
102
{ACAD_REACTORS
330
E
102
}
330
E
100
AcDbMaterial
  1
ByLayer
  2

 70
0
 40
1.0
 71
1
 41
1.0
 91
-1023410177
 42
1.0
 72
1
  3

 73
1
 74
1
 75
1
 44
0.5
 73
0
 45
1.0
 46
1.0
 77
1
  4

 78
1
 79
1
170
1
 48
1.0
171
1
  6

172
1
173
1
174
1
140
1.0
141
1.0
175
1
  7

176
1
177
1
178
1
143
1.0
179
1
  8

270
1
271
1
272
1
145
1.0
146
1.0
273
1
  9

274
1
275
1
276
1
 42
1.0
 72
1
  3

 73
1
 74
1
 75
1
 94
63
  0
MATERIAL
  5
21
102
{ACAD_REACTORS
330
E
102
}
330
E
100
AcDbMaterial
  1
Global
  2

 70
0
 40
1.0
 71
1
 41
1.0
 91
-1023410177
 42
1.0
 72
1
  3

 73
1
 74
1
 75
1
 44
0.5
 73
0
 45
1.0
 46
1.0
 77
1
  4

 78
1
 79
1
170
1
 48
1.0
171
1
  6

172
1
173
1
174
1
140
1.0
141
1.0
175
1
  7

176
1
177
1
178
1
143
1.0
179
1
  8

270
1
271
1
272
1
145
1.0
146
1.0
273
1
  9

274
1
275
1
276
1
 42
1.0
 72
1
  3

 73
1
 74
1
 75
1
 94
63
  0
MLINESTYLE
  5
22
102
{ACAD_REACTORS
330
10
102
}
330
10
100
AcDbMlineStyle
  2
Standard
 70
0
  3

 62
256
 51
90.0
 52
90.0
 71
2
 49
0.5
 62
256
  6
BYLAYER
 49
-0.5
 62
256
  6
BYLAYER
  0
MLEADERSTYLE
  5
2C
102
{ACAD_REACTORS
330
F
102
}
330
F
100
AcDbMLeaderStyle
179
2
170
2
171
1
172
0
 90
2
 40
0.0
 41
0.0
173
1
 91
-1056964608
 92
-2
290
1
 42
2.0
291
1
 43
8.0
  3
Standard
 44
4.0
300

342
29
174
1
175
1
176
0
178
1
 93
-1056964608
 45
4.0
292
0
297
0
 46
4.0
 94
-1056964608
 47
1.0
 49
1.0
140
1.0
294
1
141
0.0
177
0
142
1.0
295
0
296
0
143
3.75
271
0
272
9
273
9
  0
DICTIONARY
  5
2D
330
A
100
AcDbDictionary
280
1
281
1
  3
CREATED_BY_EZDXF
350
2E
  3
WRITTEN_BY_EZDXF
350
32
  0
DICTIONARYVAR
  5
2E
330
2D
100
DictionaryVariables
280
0
  1
0.18.1 @ 2022-11-01T20:07:51.578048+00:00
  0
DICTIONARYVAR
  5
32
330
2D
100
DictionaryVariables
280
0
  1
0.18.1 @ 2022-11-01T20:07:51.579744+00:00
  0
ENDSEC
  0
EOF
