  0
SECTION
  2
HEADER
  9
$ACADVER
  1
AC1014
  9
$HANDSEED
  5
FFFF
  9
$MEASUREMENT
 70
     1
  0
ENDSEC
  0
SECTION
  2
TABLES
  0
TABLE
  2
VPORT
  5
8
330
0
100
AcDbSymbolTable
 70
     4
  0
VPORT
  5
2E
330
8
100
AcDbSymbolTableRecord
100
AcDbViewportTableRecord
  2
*ACTIVE
 70
     0
 10
0.0
 20
0.0
 11
1.0
 21
1.0
 12
210.0
 22
148.5
 13
0.0
 23
0.0
 14
10.0
 24
10.0
 15
10.0
 25
10.0
 16
0.0
 26
0.0
 36
1.0
 17
0.0
 27
0.0
 37
0.0
 40
341.0
 41
1.24
 42
50.0
 43
0.0
 44
0.0
 50
0.0
 51
0.0
 71
     0
 72
   100
 73
     1
 74
     3
 75
     0
 76
     0
 77
     0
 78
     0
  0
ENDTAB
  0
TABLE
  2
LTYPE
  5
5
330
0
100
AcDbSymbolTable
 70
     1
  0
LTYPE
  5
14
330
5
100
AcDbSymbolTableRecord
100
AcDbLinetypeTableRecord
  2
BYBLOCK
 70
     0
  3

 72
    65
 73
     0
 40
0.0
  0
LTYPE
  5
15
330
5
100
AcDbSymbolTableRecord
100
AcDbLinetypeTableRecord
  2
BYLAYER
 70
     0
  3

 72
    65
 73
     0
 40
0.0
  0
LTYPE
  5
16
330
5
100
AcDbSymbolTableRecord
100
AcDbLinetypeTableRecord
  2
CONTINUOUS
 70
     0
  3
Solid line
 72
    65
 73
     0
 40
0.0
  0
ENDTAB
  0
TABLE
  2
LAYER
  5
2
100
AcDbSymbolTable
 70
2
  0
LAYER
  5
50
100
AcDbSymbolTableRecord
100
AcDbLayerTableRecord
  2
0
 70
0
  6
CONTINUOUS
  0
LAYER
  5
51
100
AcDbSymbolTableRecord
100
AcDbLayerTableRecord
  2
Calque_1
 70
0
  6
CONTINUOUS
  0
ENDTAB
  0
TABLE
  2
STYLE
  5
3
330
0
100
AcDbSymbolTable
 70
     1
  0
STYLE
  5
11
330
3
100
AcDbSymbolTableRecord
100
AcDbTextStyleTableRecord
  2
STANDARD
 70
     0
 40
0.0
 41
1.0
 50
0.0
 71
     0
 42
2.5
  3
txt
  4

  0
ENDTAB
  0
TABLE
  2
VIEW
  5
6
330
0
100
AcDbSymbolTable
 70
     0
  0
ENDTAB
  0
TABLE
  2
UCS
  5
7
330
0
100
AcDbSymbolTable
 70
     0
  0
ENDTAB
  0
TABLE
  2
APPID
  5
9
330
0
100
AcDbSymbolTable
 70
     2
  0
APPID
  5
12
330
9
100
AcDbSymbolTableRecord
100
AcDbRegAppTableRecord
  2
ACAD
 70
     0
  0
ENDTAB
  0
TABLE
  2
DIMSTYLE
  5
A
330
0
100
AcDbSymbolTable
 70
     1
  0
DIMSTYLE
105
27
330
A
100
AcDbSymbolTableRecord
100
AcDbDimStyleTableRecord
  2
ISO-25
 70
     0
  3

  4

  5

  6

  7

 40
1.0
 41
2.5
 42
0.625
 43
3.75
 44
1.25
 45
0.0
 46
0.0
 47
0.0
 48
0.0
140
2.5
141
2.5
142
0.0
143
0.03937007874016
144
1.0
145
0.0
146
1.0
147
0.625
 71
     0
 72
     0
 73
     0
 74
     0
 75
     0
 76
     0
 77
     1
 78
     8
170
     0
171
     3
172
     1
173
     0
174
     0
175
     0
176
     0
177
     0
178
     0
270
     2
271
     2
272
     2
273
     2
274
     3
340
11
275
     0
280
     0
281
     0
282
     0
283
     0
284
     8
285
     0
286
     0
287
     3
288
     0
  0
ENDTAB
  0
TABLE
  2
BLOCK_RECORD
  5
1
330
0
100
AcDbSymbolTable
 70
     1
  0
BLOCK_RECORD
  5
1F
330
1
100
AcDbSymbolTableRecord
100
AcDbBlockTableRecord
  2
*MODEL_SPACE
  0
BLOCK_RECORD
  5
1B
330
1
100
AcDbSymbolTableRecord
100
AcDbBlockTableRecord
  2
*PAPER_SPACE
  0
ENDTAB
  0
ENDSEC
  0
SECTION
  2
BLOCKS
  0
BLOCK
  5
20
330
1F
100
AcDbEntity
  8
0
100
AcDbBlockBegin
  2
*MODEL_SPACE
 70
     0
 10
0.0
 20
0.0
 30
0.0
  3
*MODEL_SPACE
  1

  0
ENDBLK
  5
21
330
1F
100
AcDbEntity
  8
0
100
AcDbBlockEnd
  0
BLOCK
  5
1C
330
1B
100
AcDbEntity
 67
     1
  8
0
100
AcDbBlockBegin
  2
*PAPER_SPACE
  1

  0
ENDBLK
  5
1D
330
1B
100
AcDbEntity
 67
     1
  8
0
100
AcDbBlockEnd
  0
ENDSEC
  0
SECTION
  2
ENTITIES
  0
SPLINE
  5
100
100
AcDbEntity
  8
Calque_1
 62
7
100
AcDbSpline
 70
8
 71
3
 72
8
 73
4
 74
0
 40
0
 40
0
 40
0
 40
0
 40
1
 40
1
 40
1
 40
1
 10
313.740864
 20
-646.452796
 30
0.0
 10
313.741119
 20
-646.452796
 30
0.0
 10
313.741119
 20
4.721434
 30
0.0
 10
313.740864
 20
1307.069893
 30
0.0
  0
LWPOLYLINE
  5
101
100
AcDbEntity
  8
Calque_1
 62
7
100
AcDbPolyline
 90
105
 70
0
 10
313.740669
 20
1307.068618
 30
0.0
 10
213.258796
 20
1337.743579
 30
0.0
 10
213.088546
 20
1337.796079
 30
0.0
 10
212.311547
 20
1338.036079
 30
0.0
 10
212.460797
 20
1330.528588
 30
0.0
 10
209.653551
 20
1305.553620
 30
0.0
 10
207.153804
 20
1288.956141
 30
0.0
 10
201.975810
 20
1268.361167
 30
0.0
 10
198.475565
 20
1252.986186
 30
0.0
 10
192.874572
 20
1241.488701
 30
0.0
 10
184.714582
 20
1220.496227
 30
0.0
 10
176.055093
 20
1199.818753
 30
0.0
 10
174.007595
 20
1192.671262
 30
0.0
 10
162.013611
 20
1167.118794
 30
0.0
 10
159.942863
 20
1161.726301
 30
0.0
 10
145.841381
 20
1129.483842
 30
0.0
 10
140.853887
 20
1118.901355
 30
0.0
 10
126.689405
 20
1108.588868
 30
0.0
 10
86.432456
 20
1084.146399
 30
0.0
 10
54.153246
 20
1026.816471
 30
0.0
 10
52.651748
 20
1024.243974
 30
0.0
 10
51.706000
 20
1022.886476
 30
0.0
 10
49.492752
 20
1020.231479
 30
0.0
 10
-1.456934
 20
953.631563
 30
0.0
 10
-38.211387
 20
908.354120
 30
0.0
 10
-44.394379
 20
900.299130
 30
0.0
 10
-53.174618
 20
889.349144
 30
0.0
 10
-70.936096
 20
859.671682
 30
0.0
 10
-77.743087
 20
846.014199
 30
0.0
 10
-89.934322
 20
824.309226
 30
0.0
 10
-99.752560
 20
799.289258
 30
0.0
 10
-102.190057
 20
793.094266
 30
0.0
 10
-106.022552
 20
776.826786
 30
0.0
 10
-107.497800
 20
764.436802
 30
0.0
 10
-107.869049
 20
759.089308
 30
0.0
 10
-108.353549
 20
738.501834
 30
0.0
 10
-108.313799
 20
718.596859
 30
0.0
 10
-108.298049
 20
716.736862
 30
0.0
 10
-108.196799
 20
714.734364
 30
0.0
 10
-106.899301
 20
702.876879
 30
0.0
 10
-104.881803
 20
685.656901
 30
0.0
 10
-101.252558
 20
663.621929
 30
0.0
 10
-101.191058
 20
663.336929
 30
0.0
 10
-97.954062
 20
648.441948
 30
0.0
 10
-95.911065
 20
639.779459
 30
0.0
 10
-94.058567
 20
632.676968
 30
0.0
 10
-92.269069
 20
624.419478
 30
0.0
 10
-89.044823
 20
615.816989
 30
0.0
 10
-84.955828
 20
598.927010
 30
0.0
 10
-82.605331
 20
592.679518
 30
0.0
 10
-82.036082
 20
589.904522
 30
0.0
 10
-71.662095
 20
558.839561
 30
0.0
 10
-68.335849
 20
541.492083
 30
0.0
 10
-63.824605
 20
492.277145
 30
0.0
 10
-62.422107
 20
471.749670
 30
0.0
 10
-59.158861
 20
450.247197
 30
0.0
 10
-59.737860
 20
389.347274
 30
0.0
 10
-59.503860
 20
387.794776
 30
0.0
 10
-57.010864
 20
377.534789
 30
0.0
 10
-43.648130
 20
328.889850
 30
0.0
 10
-34.638392
 20
286.207404
 30
0.0
 10
-33.355143
 20
279.382413
 30
0.0
 10
-28.753149
 20
244.484957
 30
0.0
 10
-28.316650
 20
238.357464
 30
0.0
 10
-26.263152
 20
206.662504
 30
0.0
 10
-26.016403
 20
201.187511
 30
0.0
 10
-24.352155
 20
168.457552
 30
0.0
 10
-24.446655
 20
163.522559
 30
0.0
 10
-25.458403
 20
126.007606
 30
0.0
 10
-25.828153
 20
119.512614
 30
0.0
 10
-32.493394
 20
71.385175
 30
0.0
 10
-32.976394
 20
65.737682
 30
0.0
 10
-42.282382
 20
7.560255
 30
0.0
 10
-42.509632
 20
5.700258
 30
0.0
 10
-43.420131
 20
-11.099721
 30
0.0
 10
-43.700630
 20
-63.367155
 30
0.0
 10
-44.838379
 20
-73.492143
 30
0.0
 10
-54.760866
 20
-145.349552
 30
0.0
 10
-54.268867
 20
-179.894509
 30
0.0
 10
-56.192615
 20
-219.126959
 30
0.0
 10
-54.738366
 20
-273.636891
 30
0.0
 10
-53.125868
 20
-293.849365
 30
0.0
 10
-53.563118
 20
-350.729293
 30
0.0
 10
-52.796619
 20
-360.089282
 30
0.0
 10
-52.091620
 20
-414.314213
 30
0.0
 10
-52.224370
 20
-417.636709
 30
0.0
 10
-54.401617
 20
-468.119146
 30
0.0
 10
-54.403867
 20
-468.914145
 30
0.0
 10
-54.410617
 20
-468.959144
 30
0.0
 10
-57.220863
 20
-516.704084
 30
0.0
 10
-57.506613
 20
-519.666581
 30
0.0
 10
-61.944357
 20
-563.294026
 30
0.0
 10
-62.809106
 20
-568.071520
 30
0.0
 10
-71.120596
 20
-610.243966
 30
0.0
 10
-72.480344
 20
-616.641458
 30
0.0
 10
-79.935335
 20
-660.973903
 30
0.0
 10
-86.152077
 20
-709.116342
 30
0.0
 10
-87.099326
 20
-722.323825
 30
0.0
 10
-88.705824
 20
-758.436280
 30
0.0
 10
275.688717
 20
-758.436280
 30
0.0
 10
285.286455
 20
-729.396316
 30
0.0
 10
289.776700
 20
-714.171336
 30
0.0
 10
299.902437
 20
-684.538873
 30
0.0
 10
306.126679
 20
-665.811396
 30
0.0
 10
313.740669
 20
-646.453921
 30
0.0
  0
ENDSEC
  0
SECTION
  2
OBJECTS
  0
DICTIONARY
  5
C
330
0
100
AcDbDictionary
  3
ACAD_GROUP
350
D
  3
ACAD_MLINESTYLE
350
17
  0
DICTIONARY
  5
D
330
C
100
AcDbDictionary
  0
DICTIONARY
  5
1A
330
C
100
AcDbDictionary
  0
DICTIONARY
  5
17
330
C
100
AcDbDictionary
  3
STANDARD
350
18
  0
DICTIONARY
  5
19
330
C
100
AcDbDictionary
  0
ENDSEC
  0
EOF
