  0
SECTION
  2
HEADER
  9
$ACADVER
  1
AC1024
  9
$ACADMAINTVER
 70
6
  9
$DWGCODEPAGE
  3
ANSI_1252
  9
$LASTSAVEDBY
  1
ezdxf
  9
$INSBASE
 10
0.0
 20
0.0
 30
0.0
  9
$EXTMIN
 10
1e+20
 20
1e+20
 30
1e+20
  9
$EXTMAX
 10
-1e+20
 20
-1e+20
 30
-1e+20
  9
$LIMMIN
 10
0.0
 20
0.0
  9
$LIMMAX
 10
420.0
 20
297.0
  9
$ORTHOMODE
 70
0
  9
$REGENMODE
 70
1
  9
$FILLMODE
 70
1
  9
$QTEXTMODE
 70
0
  9
$MIRRTEXT
 70
1
  9
$LTSCALE
 40
1.0
  9
$ATTMODE
 70
1
  9
$TEXTSIZE
 40
2.5
  9
$TRACEWID
 40
1.0
  9
$TEXTSTYLE
  7
Standard
  9
$CLAYER
  8
0
  9
$CELTYPE
  6
ByLayer
  9
$CECOLOR
 62
256
  9
$CELTSCALE
 40
1.0
  9
$DISPSILH
 70
0
  9
$DIMSCALE
 40
1.0
  9
$DIMASZ
 40
2.5
  9
$DIMEXO
 40
0.625
  9
$DIMDLI
 40
3.75
  9
$DIMRND
 40
0.0
  9
$DIMDLE
 40
0.0
  9
$DIMEXE
 40
1.25
  9
$DIMTP
 40
0.0
  9
$DIMTM
 40
0.0
  9
$DIMTXT
 40
2.5
  9
$DIMCEN
 40
2.5
  9
$DIMTSZ
 40
0.0
  9
$DIMTOL
 70
0
  9
$DIMLIM
 70
0
  9
$DIMTIH
 70
0
  9
$DIMTOH
 70
0
  9
$DIMSE1
 70
0
  9
$DIMSE2
 70
0
  9
$DIMTAD
 70
1
  9
$DIMZIN
 70
8
  9
$DIMBLK
  1

  9
$DIMASO
 70
1
  9
$DIMSHO
 70
1
  9
$DIMPOST
  1

  9
$DIMAPOST
  1

  9
$DIMALT
 70
0
  9
$DIMALTD
 70
3
  9
$DIMALTF
 40
0.03937007874
  9
$DIMLFAC
 40
1.0
  9
$DIMTOFL
 70
1
  9
$DIMTVP
 40
0.0
  9
$DIMTIX
 70
0
  9
$DIMSOXD
 70
0
  9
$DIMSAH
 70
0
  9
$DIMBLK1
  1

  9
$DIMBLK2
  1

  9
$DIMSTYLE
  2
ISO-25
  9
$DIMCLRD
 70
0
  9
$DIMCLRE
 70
0
  9
$DIMCLRT
 70
0
  9
$DIMTFAC
 40
1.0
  9
$DIMGAP
 40
0.625
  9
$DIMJUST
 70
0
  9
$DIMSD1
 70
0
  9
$DIMSD2
 70
0
  9
$DIMTOLJ
 70
0
  9
$DIMTZIN
 70
8
  9
$DIMALTZ
 70
0
  9
$DIMALTTZ
 70
0
  9
$DIMUPT
 70
0
  9
$DIMDEC
 70
2
  9
$DIMTDEC
 70
2
  9
$DIMALTU
 70
2
  9
$DIMALTTD
 70
3
  9
$DIMTXSTY
  7
Standard
  9
$DIMAUNIT
 70
0
  9
$DIMADEC
 70
0
  9
$DIMALTRND
 40
0.0
  9
$DIMAZIN
 70
0
  9
$DIMDSEP
 70
44
  9
$DIMATFIT
 70
3
  9
$DIMFRAC
 70
0
  9
$DIMLDRBLK
  1

  9
$DIMLUNIT
 70
2
  9
$DIMLWD
 70
-2
  9
$DIMLWE
 70
-2
  9
$DIMTMOVE
 70
0
  9
$DIMFXL
 40
1.0
  9
$DIMFXLON
 70
0
  9
$DIMJOGANG
 40
0.785398163397
  9
$DIMTFILL
 70
0
  9
$DIMTFILLCLR
 70
0
  9
$DIMARCSYM
 70
0
  9
$DIMLTYPE
  6

  9
$DIMLTEX1
  6

  9
$DIMLTEX2
  6

  9
$DIMTXTDIRECTION
 70
0
  9
$LUNITS
 70
2
  9
$LUPREC
 70
4
  9
$SKETCHINC
 40
1.0
  9
$FILLETRAD
 40
10.0
  9
$AUNITS
 70
0
  9
$AUPREC
 70
2
  9
$MENU
  1
.
  9
$ELEVATION
 40
0.0
  9
$PELEVATION
 40
0.0
  9
$THICKNESS
 40
0.0
  9
$LIMCHECK
 70
0
  9
$CHAMFERA
 40
0.0
  9
$CHAMFERB
 40
0.0
  9
$CHAMFERC
 40
0.0
  9
$CHAMFERD
 40
0.0
  9
$SKPOLY
 70
0
  9
$TDCREATE
 40
2459870.4543055557
  9
$TDUCREATE
 40
2458532.153996898
  9
$TDUPDATE
 40
2459870.4543055557
  9
$TDUUPDATE
 40
2458532.1544311
  9
$TDINDWG
 40
0.0
  9
$TDUSRTIMER
 40
0.0
  9
$USRTIMER
 70
1
  9
$ANGBASE
 50
0.0
  9
$ANGDIR
 70
0
  9
$PDMODE
 70
0
  9
$PDSIZE
 40
0.0
  9
$PLINEWID
 40
0.0
  9
$SPLFRAME
 70
0
  9
$SPLINETYPE
 70
6
  9
$SPLINESEGS
 70
8
  9
$HANDSEED
  5
7B
  9
$SURFTAB1
 70
6
  9
$SURFTAB2
 70
6
  9
$SURFTYPE
 70
6
  9
$SURFU
 70
6
  9
$SURFV
 70
6
  9
$UCSBASE
  2

  9
$UCSNAME
  2

  9
$UCSORG
 10
0.0
 20
0.0
 30
0.0
  9
$UCSXDIR
 10
1.0
 20
0.0
 30
0.0
  9
$UCSYDIR
 10
0.0
 20
1.0
 30
0.0
  9
$UCSORTHOREF
  2

  9
$UCSORTHOVIEW
 70
0
  9
$UCSORGTOP
 10
0.0
 20
0.0
 30
0.0
  9
$UCSORGBOTTOM
 10
0.0
 20
0.0
 30
0.0
  9
$UCSORGLEFT
 10
0.0
 20
0.0
 30
0.0
  9
$UCSORGRIGHT
 10
0.0
 20
0.0
 30
0.0
  9
$UCSORGFRONT
 10
0.0
 20
0.0
 30
0.0
  9
$UCSORGBACK
 10
0.0
 20
0.0
 30
0.0
  9
$PUCSBASE
  2

  9
$PUCSNAME
  2

  9
$PUCSORG
 10
0.0
 20
0.0
 30
0.0
  9
$PUCSXDIR
 10
1.0
 20
0.0
 30
0.0
  9
$PUCSYDIR
 10
0.0
 20
1.0
 30
0.0
  9
$PUCSORTHOREF
  2

  9
$PUCSORTHOVIEW
 70
0
  9
$PUCSORGTOP
 10
0.0
 20
0.0
 30
0.0
  9
$PUCSORGBOTTOM
 10
0.0
 20
0.0
 30
0.0
  9
$PUCSORGLEFT
 10
0.0
 20
0.0
 30
0.0
  9
$PUCSORGRIGHT
 10
0.0
 20
0.0
 30
0.0
  9
$PUCSORGFRONT
 10
0.0
 20
0.0
 30
0.0
  9
$PUCSORGBACK
 10
0.0
 20
0.0
 30
0.0
  9
$USERI1
 70
0
  9
$USERI2
 70
0
  9
$USERI3
 70
0
  9
$USERI4
 70
0
  9
$USERI5
 70
0
  9
$USERR1
 40
0.0
  9
$USERR2
 40
0.0
  9
$USERR3
 40
0.0
  9
$USERR4
 40
0.0
  9
$USERR5
 40
0.0
  9
$WORLDVIEW
 70
1
  9
$SHADEDGE
 70
3
  9
$SHADEDIF
 70
70
  9
$TILEMODE
 70
1
  9
$MAXACTVP
 70
64
  9
$PINSBASE
 10
0.0
 20
0.0
 30
0.0
  9
$PLIMCHECK
 70
0
  9
$PEXTMIN
 10
1e+20
 20
1e+20
 30
1e+20
  9
$PEXTMAX
 10
-1e+20
 20
-1e+20
 30
-1e+20
  9
$PLIMMIN
 10
0.0
 20
0.0
  9
$PLIMMAX
 10
420.0
 20
297.0
  9
$UNITMODE
 70
0
  9
$VISRETAIN
 70
1
  9
$PLINEGEN
 70
0
  9
$PSLTSCALE
 70
1
  9
$TREEDEPTH
 70
3020
  9
$CMLSTYLE
  2
Standard
  9
$CMLJUST
 70
0
  9
$CMLSCALE
 40
20.0
  9
$PROXYGRAPHICS
 70
1
  9
$MEASUREMENT
 70
1
  9
$CELWEIGHT
370
-1
  9
$ENDCAPS
280
0
  9
$JOINSTYLE
280
0
  9
$LWDISPLAY
290
0
  9
$INSUNITS
 70
6
  9
$HYPERLINKBASE
  1

  9
$STYLESHEET
  1

  9
$XEDIT
290
1
  9
$CEPSNTYPE
380
0
  9
$PSTYLEMODE
290
1
  9
$FINGERPRINTGUID
  2
{FAFEC075-05D5-4FF6-8830-00ADB9BA87D0}
  9
$VERSIONGUID
  2
{C62F529B-8529-49E6-AA05-9BF2A2E1C44D}
  9
$EXTNAMES
290
1
  9
$PSVPSCALE
 40
0.0
  9
$OLESTARTUP
290
0
  9
$SORTENTS
280
127
  9
$INDEXCTL
280
0
  9
$HIDETEXT
280
1
  9
$XCLIPFRAME
280
0
  9
$HALOGAP
280
0
  9
$OBSCOLOR
 70
257
  9
$OBSLTYPE
280
0
  9
$INTERSECTIONDISPLAY
280
0
  9
$INTERSECTIONCOLOR
 70
257
  9
$DIMASSOC
280
2
  9
$PROJECTNAME
  1

  9
$CAMERADISPLAY
290
0
  9
$LENSLENGTH
 40
50.0
  9
$CAMERAHEIGHT
 40
0.0
  9
$STEPSPERSEC
 40
24.0
  9
$STEPSIZE
 40
100.0
  9
$3DDWFPREC
 40
2.0
  9
$PSOLWIDTH
 40
0.005
  9
$PSOLHEIGHT
 40
0.08
  9
$LOFTANG1
 40
1.570796326795
  9
$LOFTANG2
 40
1.570796326795
  9
$LOFTMAG1
 40
0.0
  9
$LOFTMAG2
 40
0.0
  9
$LOFTPARAM
 70
7
  9
$LOFTNORMALS
280
1
  9
$LATITUDE
 40
37.795
  9
$LONGITUDE
 40
-122.394
  9
$NORTHDIRECTION
 40
0.0
  9
$TIMEZONE
 70
-8000
  9
$LIGHTGLYPHDISPLAY
280
1
  9
$TILEMODELIGHTSYNCH
280
1
  9
$CMATERIAL
347
20
  9
$SOLIDHIST
280
0
  9
$SHOWHIST
280
1
  9
$DWFFRAME
280
2
  9
$DGNFRAME
280
2
  9
$REALWORLDSCALE
290
1
  9
$INTERFERECOLOR
 62
256
  9
$CSHADOW
280
0
  9
$SHADOWPLANELOCATION
 40
0.0
  0
ENDSEC
  0
SECTION
  2
CLASSES
  0
CLASS
  1
ACDBDICTIONARYWDFLT
  2
AcDbDictionaryWithDefault
  3
ObjectDBX Classes
 90
0
 91
0
280
0
281
0
  0
CLASS
  1
SUN
  2
AcDbSun
  3
SCENEOE
 90
1153
 91
0
280
0
281
0
  0
CLASS
  1
VISUALSTYLE
  2
AcDbVisualStyle
  3
ObjectDBX Classes
 90
4095
 91
0
280
0
281
0
  0
CLASS
  1
MATERIAL
  2
AcDbMaterial
  3
ObjectDBX Classes
 90
1153
 91
0
280
0
281
0
  0
CLASS
  1
SCALE
  2
AcDbScale
  3
ObjectDBX Classes
 90
1153
 91
0
280
0
281
0
  0
CLASS
  1
TABLESTYLE
  2
AcDbTableStyle
  3
ObjectDBX Classes
 90
4095
 91
0
280
0
281
0
  0
CLASS
  1
MLEADERSTYLE
  2
AcDbMLeaderStyle
  3
ACDB_MLEADERSTYLE_CLASS
 90
4095
 91
0
280
0
281
0
  0
CLASS
  1
DICTIONARYVAR
  2
AcDbDictionaryVar
  3
ObjectDBX Classes
 90
0
 91
0
280
0
281
0
  0
CLASS
  1
CELLSTYLEMAP
  2
AcDbCellStyleMap
  3
ObjectDBX Classes
 90
1152
 91
0
280
0
281
0
  0
CLASS
  1
MENTALRAYRENDERSETTINGS
  2
AcDbMentalRayRenderSettings
  3
SCENEOE
 90
1024
 91
0
280
0
281
0
  0
CLASS
  1
ACDBDETAILVIEWSTYLE
  2
AcDbDetailViewStyle
  3
ObjectDBX Classes
 90
1025
 91
0
280
0
281
0
  0
CLASS
  1
ACDBSECTIONVIEWSTYLE
  2
AcDbSectionViewStyle
  3
ObjectDBX Classes
 90
1025
 91
0
280
0
281
0
  0
CLASS
  1
RASTERVARIABLES
  2
AcDbRasterVariables
  3
ISM
 90
0
 91
0
280
0
281
0
  0
CLASS
  1
ACDBPLACEHOLDER
  2
AcDbPlaceHolder
  3
ObjectDBX Classes
 90
0
 91
0
280
0
281
0
  0
CLASS
  1
LAYOUT
  2
AcDbLayout
  3
ObjectDBX Classes
 90
0
 91
0
280
0
281
0
  0
ENDSEC
  0
SECTION
  2
TABLES
  0
TABLE
  2
VPORT
  5
8
330
0
100
AcDbSymbolTable
 70
1
  0
VPORT
  5
23
330
8
100
AcDbSymbolTableRecord
100
AcDbViewportTableRecord
  2
*Active
 70
0
 10
0.0
 20
0.0
 11
1.0
 21
1.0
 12
0.0
 22
0.0
 13
0.0
 23
0.0
 14
0.5
 24
0.5
 15
0.5
 25
0.5
 16
0.0
 26
0.0
 36
1.0
 17
0.0
 27
0.0
 37
0.0
 40
1000.0
 41
1.34
 42
50.0
 43
0.0
 44
0.0
 50
0.0
 51
0.0
 71
0
 72
1000
 73
1
 74
3
 75
0
 76
0
 77
0
 78
0
281
0
 65
0
146
0.0
  0
ENDTAB
  0
TABLE
  2
LTYPE
  5
2
330
0
100
AcDbSymbolTable
 70
3
  0
LTYPE
  5
24
330
2
100
AcDbSymbolTableRecord
100
AcDbLinetypeTableRecord
  2
ByBlock
 70
0
  3

 72
65
 73
0
 40
0.0
  0
LTYPE
  5
25
330
2
100
AcDbSymbolTableRecord
100
AcDbLinetypeTableRecord
  2
ByLayer
 70
0
  3

 72
65
 73
0
 40
0.0
  0
LTYPE
  5
26
330
2
100
AcDbSymbolTableRecord
100
AcDbLinetypeTableRecord
  2
Continuous
 70
0
  3

 72
65
 73
0
 40
0.0
  0
ENDTAB
  0
TABLE
  2
LAYER
  5
1
330
0
100
AcDbSymbolTable
 70
2
  0
LAYER
  5
27
330
1
100
AcDbSymbolTableRecord
100
AcDbLayerTableRecord
  2
0
 70
0
 62
7
  6
Continuous
370
-3
390
13
347
21
  0
LAYER
  5
28
330
1
100
AcDbSymbolTableRecord
100
AcDbLayerTableRecord
  2
Defpoints
 70
0
 62
7
  6
Continuous
290
0
370
-3
390
13
347
21
  0
ENDTAB
  0
TABLE
  2
STYLE
  5
5
330
0
100
AcDbSymbolTable
 70
1
  0
STYLE
  5
29
330
5
100
AcDbSymbolTableRecord
100
AcDbTextStyleTableRecord
  2
Standard
 70
0
 40
0.0
 41
1.0
 50
0.0
 71
0
 42
2.5
  3
txt
  4

  0
ENDTAB
  0
TABLE
  2
VIEW
  5
7
330
0
100
AcDbSymbolTable
 70
0
  0
ENDTAB
  0
TABLE
  2
UCS
  5
6
330
0
100
AcDbSymbolTable
 70
0
  0
ENDTAB
  0
TABLE
  2
APPID
  5
3
330
0
100
AcDbSymbolTable
 70
3
  0
APPID
  5
2A
330
3
100
AcDbSymbolTableRecord
100
AcDbRegAppTableRecord
  2
ACAD
 70
0
  0
APPID
  5
78
330
3
100
AcDbSymbolTableRecord
100
AcDbRegAppTableRecord
  2
HATCHBACKGROUNDCOLOR
 70
0
  0
APPID
  5
79
330
3
100
AcDbSymbolTableRecord
100
AcDbRegAppTableRecord
  2
EZDXF
 70
0
  0
ENDTAB
  0
TABLE
  2
DIMSTYLE
  5
4
330
0
100
AcDbSymbolTable
 70
1
100
AcDbDimStyleTable
  0
DIMSTYLE
105
2B
330
4
100
AcDbSymbolTableRecord
100
AcDbDimStyleTableRecord
  2
Standard
 70
0
 40
1.0
 41
2.5
 42
0.625
 43
3.75
 44
1.25
 45
0.0
 46
0.0
 47
0.0
 48
0.0
 49
2.5
140
2.5
141
2.5
142
0.0
143
0.03937007874
144
1.0
145
0.0
146
1.0
147
0.625
148
0.0
 69
0
 70
0
 71
0
 72
0
 73
0
 74
0
 75
0
 76
0
 77
1
 78
8
 79
3
170
0
171
3
172
1
173
0
174
0
175
0
176
0
177
0
178
0
179
2
271
2
272
2
273
2
274
3
275
0
276
0
277
2
278
44
279
0
280
0
281
0
282
0
283
0
284
8
285
0
286
0
288
0
289
3
290
0
371
-2
372
-2
  0
ENDTAB
  0
TABLE
  2
BLOCK_RECORD
  5
9
330
0
100
AcDbSymbolTable
 70
2
  0
BLOCK_RECORD
  5
17
330
9
100
AcDbSymbolTableRecord
100
AcDbBlockTableRecord
  2
*Model_Space
340
1A
 70
0
280
1
281
0
  0
BLOCK_RECORD
  5
1B
330
9
100
AcDbSymbolTableRecord
100
AcDbBlockTableRecord
  2
*Paper_Space
340
1E
 70
0
280
1
281
0
  0
ENDTAB
  0
ENDSEC
  0
SECTION
  2
BLOCKS
  0
BLOCK
  5
18
330
17
100
AcDbEntity
  8
0
100
AcDbBlockBegin
  2
*Model_Space
 70
0
 10
0.0
 20
0.0
 30
0.0
  3
*Model_Space
  1

  0
ENDBLK
  5
19
330
17
100
AcDbEntity
  8
0
100
AcDbBlockEnd
  0
BLOCK
  5
1C
330
1B
100
AcDbEntity
  8
0
100
AcDbBlockBegin
  2
*Paper_Space
 70
0
 10
0.0
 20
0.0
 30
0.0
  3
*Paper_Space
  1

  0
ENDBLK
  5
1D
330
1B
100
AcDbEntity
  8
0
100
AcDbBlockEnd
  0
ENDSEC
  0
SECTION
  2
ENTITIES
  0
LINE
  5
2F
330
17
100
AcDbEntity
  8
0
100
AcDbLine
 10
-128.705824
 20
-758.43628
 30
0.0
 11
-88.705824
 21
-758.43628
 31
0.0
  0
LINE
  5
30
330
17
100
AcDbEntity
  8
0
100
AcDbLine
 10
-128.705824
 20
-738.43628
 30
0.0
 11
-87.81610437279659
 21
-738.43628
 31
0.0
  0
ARC
  5
31
330
17
100
AcDbEntity
  8
0
100
AcDbCircle
 10
-128.705824
 20
-748.43628
 30
0.0
 40
10.0
100
AcDbArc
 50
90.0
 51
-90.0
  0
LINE
  5
32
330
17
100
AcDbEntity
  8
0
100
AcDbLine
 10
-121.24077977810181
 20
-671.0832650416667
 30
0.0
 11
-81.24077977810181
 21
-671.0832650416667
 31
0.0
  0
LINE
  5
33
330
17
100
AcDbEntity
  8
0
100
AcDbLine
 10
-121.24077977810181
 20
-651.0832650416667
 30
0.0
 11
-78.27211482426566
 21
-651.0832650416667
 31
0.0
  0
ARC
  5
34
330
17
100
AcDbEntity
  8
0
100
AcDbCircle
 10
-121.24077977810181
 20
-661.0832650416667
 30
0.0
 40
10.0
100
AcDbArc
 50
90.0
 51
-90.0
  0
LINE
  5
35
330
17
100
AcDbEntity
  8
0
100
AcDbLine
 10
-105.89518211947204
 20
-583.7302500833333
 30
0.0
 11
-65.89518211947204
 21
-583.7302500833333
 31
0.0
  0
LINE
  5
36
330
17
100
AcDbEntity
  8
0
100
AcDbLine
 10
-105.89518211947204
 20
-563.7302500833333
 30
0.0
 11
-62.02331562136894
 21
-563.7302500833333
 31
0.0
  0
ARC
  5
37
330
17
100
AcDbEntity
  8
0
100
AcDbCircle
 10
-105.89518211947204
 20
-573.7302500833333
 30
0.0
 40
10.0
100
AcDbArc
 50
90.0
 51
-90.0
  0
LINE
  5
38
330
17
100
AcDbEntity
  8
0
100
AcDbLine
 10
-96.02443368741581
 20
-496.377235125
 30
0.0
 11
-56.024433687415815
 21
-496.377235125
 31
0.0
  0
LINE
  5
39
330
17
100
AcDbEntity
  8
0
100
AcDbLine
 10
-96.02443368741581
 20
-476.377235125
 30
0.0
 11
-54.84724255470102
 21
-476.377235125
 31
0.0
  0
ARC
  5
3A
330
17
100
AcDbEntity
  8
0
100
AcDbCircle
 10
-96.02443368741581
 20
-486.377235125
 30
0.0
 40
10.0
100
AcDbArc
 50
90.0
 51
-90.0
  0
LINE
  5
3B
330
17
100
AcDbEntity
  8
0
100
AcDbLine
 10
-92.16039721352024
 20
-409.0242201666667
 30
0.0
 11
-52.160397213520234
 21
-409.0242201666667
 31
0.0
  0
LINE
  5
3C
330
17
100
AcDbEntity
  8
0
100
AcDbLine
 10
-92.16039721352024
 20
-389.0242201666667
 30
0.0
 11
-52.42042483808282
 21
-389.0242201666667
 31
0.0
  0
ARC
  5
3D
330
17
100
AcDbEntity
  8
0
100
AcDbCircle
 10
-92.16039721352024
 20
-399.0242201666667
 30
0.0
 40
10.0
100
AcDbArc
 50
90.0
 51
-90.0
  0
LINE
  5
3E
330
17
100
AcDbEntity
  8
0
100
AcDbLine
 10
-93.33974133034411
 20
-321.67120520833333
 30
0.0
 11
-53.33974133034412
 21
-321.67120520833333
 31
0.0
  0
LINE
  5
3F
330
17
100
AcDbEntity
  8
0
100
AcDbLine
 10
-93.33974133034411
 20
-301.67120520833333
 30
0.0
 11
-53.1859964099919
 21
-301.67120520833333
 31
0.0
  0
ARC
  5
40
330
17
100
AcDbEntity
  8
0
100
AcDbCircle
 10
-93.33974133034411
 20
-311.67120520833333
 30
0.0
 40
10.0
100
AcDbArc
 50
90.0
 51
-90.0
  0
LINE
  5
41
330
17
100
AcDbEntity
  8
0
100
AcDbLine
 10
-95.78733412652393
 20
-234.31819025000004
 30
0.0
 11
-55.78733412652393
 21
-234.31819025000004
 31
0.0
  0
LINE
  5
42
330
17
100
AcDbEntity
  8
0
100
AcDbLine
 10
-95.78733412652393
 20
-214.31819025000004
 30
0.0
 11
-55.95681888567946
 21
-214.31819025000004
 31
0.0
  0
ARC
  5
43
330
17
100
AcDbEntity
  8
0
100
AcDbCircle
 10
-95.78733412652393
 20
-224.31819025000004
 30
0.0
 40
10.0
100
AcDbArc
 50
90.0
 51
-90.0
  0
LINE
  5
44
330
17
100
AcDbEntity
  8
0
100
AcDbLine
 10
-94.73785583837564
 20
-146.9651752916667
 30
0.0
 11
-54.73785583837564
 21
-146.9651752916667
 31
0.0
  0
LINE
  5
45
330
17
100
AcDbEntity
  8
0
100
AcDbLine
 10
-94.73785583837564
 20
-126.9651752916667
 30
0.0
 11
-52.22224484137264
 21
-126.9651752916667
 31
0.0
  0
ARC
  5
46
330
17
100
AcDbEntity
  8
0
100
AcDbCircle
 10
-94.73785583837564
 20
-136.9651752916667
 30
0.0
 40
10.0
100
AcDbArc
 50
90.0
 51
-90.0
  0
LINE
  5
47
330
17
100
AcDbEntity
  8
0
100
AcDbLine
 10
-83.68047840332882
 20
-59.61216033333335
 30
0.0
 11
-43.68047840332882
 21
-59.61216033333335
 31
0.0
  0
LINE
  5
48
330
17
100
AcDbEntity
  8
0
100
AcDbLine
 10
-83.68047840332882
 20
-39.61216033333335
 30
0.0
 11
-43.573146178065954
 21
-39.61216033333335
 31
0.0
  0
ARC
  5
49
330
17
100
AcDbEntity
  8
0
100
AcDbCircle
 10
-83.68047840332882
 20
-49.61216033333335
 30
0.0
 40
10.0
100
AcDbArc
 50
90.0
 51
-90.0
  0
LINE
  5
4A
330
17
100
AcDbEntity
  8
0
100
AcDbLine
 10
-79.0543186835688
 20
27.740854624999997
 30
0.0
 11
-39.054318683568795
 21
27.740854624999997
 31
0.0
  0
LINE
  5
4B
330
17
100
AcDbEntity
  8
0
100
AcDbLine
 10
-79.0543186835688
 20
47.740854625
 30
0.0
 11
-35.85514385584738
 21
47.740854625
 31
0.0
  0
ARC
  5
4C
330
17
100
AcDbEntity
  8
0
100
AcDbCircle
 10
-79.0543186835688
 20
37.740854625
 30
0.0
 40
10.0
100
AcDbArc
 50
90.0
 51
-90.0
  0
LINE
  5
4D
330
17
100
AcDbEntity
  8
0
100
AcDbLine
 10
-66.44011152234081
 20
115.09386958333334
 30
0.0
 11
-26.440111522340814
 21
115.09386958333334
 31
0.0
  0
LINE
  5
4E
330
17
100
AcDbEntity
  8
0
100
AcDbLine
 10
-66.44011152234081
 20
135.09386958333334
 30
0.0
 11
-25.213353805671797
 21
135.09386958333334
 31
0.0
  0
ARC
  5
4F
330
17
100
AcDbEntity
  8
0
100
AcDbCircle
 10
-66.44011152234081
 20
125.09386958333334
 30
0.0
 40
10.0
100
AcDbArc
 50
90.0
 51
-90.0
  0
LINE
  5
50
330
17
100
AcDbEntity
  8
0
100
AcDbLine
 10
-66.07316091038139
 20
202.4468845416667
 30
0.0
 11
-26.073160910381386
 21
202.4468845416667
 31
0.0
  0
LINE
  5
51
330
17
100
AcDbEntity
  8
0
100
AcDbLine
 10
-66.07316091038139
 20
222.4468845416667
 30
0.0
 11
-27.285812822842228
 21
222.4468845416667
 31
0.0
  0
ARC
  5
52
330
17
100
AcDbEntity
  8
0
100
AcDbCircle
 10
-66.07316091038139
 20
212.4468845416667
 30
0.0
 40
10.0
100
AcDbArc
 50
90.0
 51
-90.0
  0
LINE
  5
53
330
17
100
AcDbEntity
  8
0
100
AcDbLine
 10
-75.39672349818028
 20
289.7998994999999
 30
0.0
 11
-35.39672349818027
 21
289.7998994999999
 31
0.0
  0
LINE
  5
54
330
17
100
AcDbEntity
  8
0
100
AcDbLine
 10
-75.39672349818028
 20
309.7998994999999
 30
0.0
 11
-39.61847686254931
 21
309.7998994999999
 31
0.0
  0
ARC
  5
55
330
17
100
AcDbEntity
  8
0
100
AcDbCircle
 10
-75.39672349818028
 20
299.7998994999999
 30
0.0
 40
10.0
100
AcDbArc
 50
90.0
 51
-90.0
  0
LINE
  5
56
330
17
100
AcDbEntity
  8
0
100
AcDbLine
 10
-96.90596330474654
 20
377.1529144583334
 30
0.0
 11
-56.90596330474653
 21
377.1529144583334
 31
0.0
  0
LINE
  5
57
330
17
100
AcDbEntity
  8
0
100
AcDbLine
 10
-96.90596330474654
 20
397.1529144583334
 30
0.0
 11
-59.66364877284074
 21
397.1529144583334
 31
0.0
  0
ARC
  5
58
330
17
100
AcDbEntity
  8
0
100
AcDbCircle
 10
-96.90596330474654
 20
387.1529144583334
 30
0.0
 40
10.0
100
AcDbArc
 50
90.0
 51
-90.0
  0
LINE
  5
59
330
17
100
AcDbEntity
  8
0
100
AcDbLine
 10
-101.32278658771065
 20
464.5059294166666
 30
0.0
 11
-61.32278658771066
 21
464.5059294166666
 31
0.0
  0
LINE
  5
5A
330
17
100
AcDbEntity
  8
0
100
AcDbLine
 10
-101.32278658771065
 20
484.5059294166666
 30
0.0
 11
-63.293652493021234
 21
484.5059294166666
 31
0.0
  0
ARC
  5
5B
330
17
100
AcDbEntity
  8
0
100
AcDbCircle
 10
-101.32278658771065
 20
474.5059294166666
 30
0.0
 40
10.0
100
AcDbArc
 50
90.0
 51
-90.0
  0
LINE
  5
5C
330
17
100
AcDbEntity
  8
0
100
AcDbLine
 10
-110.32361524366657
 20
551.8589443750001
 30
0.0
 11
-70.32361524366657
 21
551.8589443750001
 31
0.0
  0
LINE
  5
5D
330
17
100
AcDbEntity
  8
0
100
AcDbLine
 10
-110.32361524366657
 20
571.8589443750001
 30
0.0
 11
-76.0098523939419
 21
571.8589443750001
 31
0.0
  0
ARC
  5
5E
330
17
100
AcDbEntity
  8
0
100
AcDbCircle
 10
-110.32361524366657
 20
561.8589443750001
 30
0.0
 40
10.0
100
AcDbArc
 50
90.0
 51
-90.0
  0
LINE
  5
5F
330
17
100
AcDbEntity
  8
0
100
AcDbLine
 10
-135.76304763573995
 20
639.2119593333333
 30
0.0
 11
-95.76304763573995
 21
639.2119593333333
 31
0.0
  0
LINE
  5
60
330
17
100
AcDbEntity
  8
0
100
AcDbLine
 10
-135.76304763573995
 20
659.2119593333333
 30
0.0
 11
-100.29461440526687
 21
659.2119593333333
 31
0.0
  0
ARC
  5
61
330
17
100
AcDbEntity
  8
0
100
AcDbCircle
 10
-135.76304763573995
 20
649.2119593333333
 30
0.0
 40
10.0
100
AcDbArc
 50
90.0
 51
-90.0
  0
LINE
  5
62
330
17
100
AcDbEntity
  8
0
100
AcDbLine
 10
-148.32971123213514
 20
726.5649742916665
 30
0.0
 11
-108.32971123213512
 21
726.5649742916665
 31
0.0
  0
LINE
  5
63
330
17
100
AcDbEntity
  8
0
100
AcDbLine
 10
-148.32971123213514
 20
746.5649742916665
 30
0.0
 11
-108.1637932547681
 21
746.5649742916665
 31
0.0
  0
ARC
  5
64
330
17
100
AcDbEntity
  8
0
100
AcDbCircle
 10
-148.32971123213514
 20
736.5649742916665
 30
0.0
 40
10.0
100
AcDbArc
 50
90.0
 51
-90.0
  0
LINE
  5
65
330
17
100
AcDbEntity
  8
0
100
AcDbLine
 10
-134.01201048968338
 20
813.91798925
 30
0.0
 11
-94.01201048968338
 21
813.91798925
 31
0.0
  0
LINE
  5
66
330
17
100
AcDbEntity
  8
0
100
AcDbLine
 10
-134.01201048968338
 20
833.91798925
 30
0.0
 11
-84.53727815939655
 21
833.91798925
 31
0.0
  0
ARC
  5
67
330
17
100
AcDbEntity
  8
0
100
AcDbCircle
 10
-134.01201048968338
 20
823.91798925
 30
0.0
 40
10.0
100
AcDbArc
 50
90.0
 51
-90.0
  0
LINE
  5
68
330
17
100
AcDbEntity
  8
0
100
AcDbLine
 10
-83.64837056856423
 20
901.2710042083332
 30
0.0
 11
-43.64837056856423
 21
901.2710042083332
 31
0.0
  0
LINE
  5
69
330
17
100
AcDbEntity
  8
0
100
AcDbLine
 10
-83.64837056856423
 20
921.2710042083332
 30
0.0
 11
-27.72596684185135
 21
921.2710042083332
 31
0.0
  0
ARC
  5
6A
330
17
100
AcDbEntity
  8
0
100
AcDbCircle
 10
-83.64837056856423
 20
911.2710042083332
 30
0.0
 40
10.0
100
AcDbArc
 50
90.0
 51
-90.0
  0
LINE
  5
6B
330
17
100
AcDbEntity
  8
0
100
AcDbLine
 10
-14.687310836204556
 20
988.6240191666667
 30
0.0
 11
25.312689163795444
 21
988.6240191666667
 31
0.0
  0
LINE
  5
6C
330
17
100
AcDbEntity
  8
0
100
AcDbLine
 10
-14.687310836204556
 20
1008.6240191666667
 30
0.0
 11
40.61291446738291
 21
1008.6240191666667
 31
0.0
  0
ARC
  5
6D
330
17
100
AcDbEntity
  8
0
100
AcDbCircle
 10
-14.687310836204556
 20
998.6240191666667
 30
0.0
 40
10.0
100
AcDbArc
 50
90.0
 51
-90.0
  0
LINE
  5
6E
330
17
100
AcDbEntity
  8
0
100
AcDbLine
 10
41.83275295542707
 20
1075.977034125
 30
0.0
 11
81.83275295542707
 21
1075.977034125
 31
0.0
  0
LINE
  5
6F
330
17
100
AcDbEntity
  8
0
100
AcDbLine
 10
41.83275295542707
 20
1095.977034125
 30
0.0
 11
105.91761009244193
 21
1095.977034125
 31
0.0
  0
ARC
  5
70
330
17
100
AcDbEntity
  8
0
100
AcDbCircle
 10
41.83275295542707
 20
1085.977034125
 30
0.0
 40
10.0
100
AcDbArc
 50
90.0
 51
-90.0
  0
LINE
  5
71
330
17
100
AcDbEntity
  8
0
100
AcDbLine
 10
120.55871139072889
 20
1163.3300490833335
 30
0.0
 11
160.5587113907289
 21
1163.3300490833335
 31
0.0
  0
LINE
  5
72
330
17
100
AcDbEntity
  8
0
100
AcDbLine
 10
120.55871139072889
 20
1183.3300490833335
 30
0.0
 11
169.62295558814
 21
1183.3300490833335
 31
0.0
  0
ARC
  5
73
330
17
100
AcDbEntity
  8
0
100
AcDbCircle
 10
120.55871139072889
 20
1173.3300490833335
 30
0.0
 40
10.0
100
AcDbArc
 50
90.0
 51
-90.0
  0
LINE
  5
74
330
17
100
AcDbEntity
  8
0
100
AcDbLine
 10
157.35360050369732
 20
1250.6830640416665
 30
0.0
 11
197.35360050369732
 21
1250.6830640416665
 31
0.0
  0
LINE
  5
75
330
17
100
AcDbEntity
  8
0
100
AcDbLine
 10
157.35360050369732
 20
1270.6830640416665
 30
0.0
 11
202.55958198972755
 21
1270.6830640416665
 31
0.0
  0
ARC
  5
76
330
17
100
AcDbEntity
  8
0
100
AcDbCircle
 10
157.35360050369732
 20
1260.6830640416665
 30
0.0
 40
10.0
100
AcDbArc
 50
90.0
 51
-90.0
  0
LWPOLYLINE
  5
77
330
17
100
AcDbEntity
  8
0
100
AcDbPolyline
 90
105
 70
0
 10
313.740669
 20
1307.068618
 10
213.258796
 20
1337.743579
 10
213.088546
 20
1337.796079
 10
212.311547
 20
1338.036079
 10
212.460797
 20
1330.528588
 10
209.653551
 20
1305.55362
 10
207.153804
 20
1288.956141
 10
201.97581
 20
1268.361167
 10
198.475565
 20
1252.986186
 10
192.874572
 20
1241.488701
 10
184.714582
 20
1220.496227
 10
176.055093
 20
1199.818753
 10
174.007595
 20
1192.671262
 10
162.013611
 20
1167.118794
 10
159.942863
 20
1161.726301
 10
145.841381
 20
1129.483842
 10
140.853887
 20
1118.901355
 10
126.689405
 20
1108.588868
 10
86.432456
 20
1084.146399
 10
54.153246
 20
1026.816471
 10
52.651748
 20
1024.243974
 10
51.706
 20
1022.886476
 10
49.492752
 20
1020.231479
 10
-1.456934
 20
953.631563
 10
-38.211387
 20
908.35412
 10
-44.394379
 20
900.29913
 10
-53.174618
 20
889.349144
 10
-70.936096
 20
859.671682
 10
-77.743087
 20
846.014199
 10
-89.934322
 20
824.309226
 10
-99.75256
 20
799.289258
 10
-102.190057
 20
793.094266
 10
-106.022552
 20
776.826786
 10
-107.4978
 20
764.436802
 10
-107.869049
 20
759.089308
 10
-108.353549
 20
738.501834
 10
-108.313799
 20
718.596859
 10
-108.298049
 20
716.736862
 10
-108.196799
 20
714.734364
 10
-106.899301
 20
702.876879
 10
-104.881803
 20
685.656901
 10
-101.252558
 20
663.621929
 10
-101.191058
 20
663.336929
 10
-97.954062
 20
648.441948
 10
-95.911065
 20
639.779459
 10
-94.058567
 20
632.676968
 10
-92.269069
 20
624.419478
 10
-89.044823
 20
615.816989
 10
-84.955828
 20
598.92701
 10
-82.605331
 20
592.679518
 10
-82.036082
 20
589.904522
 10
-71.662095
 20
558.839561
 10
-68.335849
 20
541.492083
 10
-63.824605
 20
492.277145
 10
-62.422107
 20
471.74967
 10
-59.158861
 20
450.247197
 10
-59.73786
 20
389.347274
 10
-59.50386
 20
387.794776
 10
-57.010864
 20
377.534789
 10
-43.64813
 20
328.88985
 10
-34.638392
 20
286.207404
 10
-33.355143
 20
279.382413
 10
-28.753149
 20
244.484957
 10
-28.31665
 20
238.357464
 10
-26.263152
 20
206.662504
 10
-26.016403
 20
201.187511
 10
-24.352155
 20
168.457552
 10
-24.446655
 20
163.522559
 10
-25.458403
 20
126.007606
 10
-25.828153
 20
119.512614
 10
-32.493394
 20
71.385175
 10
-32.976394
 20
65.737682
 10
-42.282382
 20
7.560255
 10
-42.509632
 20
5.700258
 10
-43.420131
 20
-11.099721
 10
-43.70063
 20
-63.367155
 10
-44.838379
 20
-73.492143
 10
-54.760866
 20
-145.349552
 10
-54.268867
 20
-179.894509
 10
-56.192615
 20
-219.126959
 10
-54.738366
 20
-273.636891
 10
-53.125868
 20
-293.849365
 10
-53.563118
 20
-350.729293
 10
-52.796619
 20
-360.089282
 10
-52.09162
 20
-414.314213
 10
-52.22437
 20
-417.636709
 10
-54.401617
 20
-468.119146
 10
-54.403867
 20
-468.914145
 10
-54.410617
 20
-468.959144
 10
-57.220863
 20
-516.704084
 10
-57.506613
 20
-519.666581
 10
-61.944357
 20
-563.294026
 10
-62.809106
 20
-568.07152
 10
-71.120596
 20
-610.243966
 10
-72.480344
 20
-616.641458
 10
-79.935335
 20
-660.973903
 10
-86.152077
 20
-709.116342
 10
-87.099326
 20
-722.323825
 10
-88.705824
 20
-758.43628
 10
275.688717
 20
-758.43628
 10
285.286455
 20
-729.396316
 10
289.7767
 20
-714.171336
 10
299.902437
 20
-684.538873
 10
306.126679
 20
-665.811396
 10
313.740669
 20
-646.453921
  0
ENDSEC
  0
SECTION
  2
OBJECTS
  0
DICTIONARY
  5
A
330
0
100
AcDbDictionary
281
1
  3
ACAD_COLOR
350
B
  3
ACAD_GROUP
350
C
  3
ACAD_LAYOUT
350
D
  3
ACAD_MATERIAL
350
E
  3
ACAD_MLEADERSTYLE
350
F
  3
ACAD_MLINESTYLE
350
10
  3
ACAD_PLOTSETTINGS
350
11
  3
ACAD_PLOTSTYLENAME
350
12
  3
ACAD_SCALELIST
350
14
  3
ACAD_TABLESTYLE
350
15
  3
ACAD_VISUALSTYLE
350
16
  3
EZDXF_META
350
2D
  0
DICTIONARY
  5
B
330
A
100
AcDbDictionary
281
1
  0
DICTIONARY
  5
C
330
A
100
AcDbDictionary
281
1
  0
DICTIONARY
  5
D
330
A
100
AcDbDictionary
281
1
  3
Model
350
1A
  3
Layout1
350
1E
  0
DICTIONARY
  5
E
330
A
100
AcDbDictionary
281
1
  3
ByBlock
350
1F
  3
ByLayer
350
20
  3
Global
350
21
  0
DICTIONARY
  5
F
330
A
100
AcDbDictionary
281
1
  3
Standard
350
2C
  0
DICTIONARY
  5
10
330
A
100
AcDbDictionary
281
1
  3
Standard
350
22
  0
DICTIONARY
  5
11
330
A
100
AcDbDictionary
281
1
  0
ACDBDICTIONARYWDFLT
  5
12
330
A
100
AcDbDictionary
281
1
  3
Normal
350
13
100
AcDbDictionaryWithDefault
340
13
  0
ACDBPLACEHOLDER
  5
13
330
12
  0
DICTIONARY
  5
14
330
A
100
AcDbDictionary
281
1
  0
DICTIONARY
  5
15
330
A
100
AcDbDictionary
281
1
  0
DICTIONARY
  5
16
330
A
100
AcDbDictionary
281
1
  0
LAYOUT
  5
1A
330
D
100
AcDbPlotSettings
  1

  2
Adobe PDF
  4
A3
  6

 40
7.5
 41
20.0
 42
7.5
 43
20.0
 44
420.0
 45
297.0
 46
0.0
 47
0.0
 48
0.0
 49
0.0
140
0.0
141
0.0
142
1.0
143
1.0
 70
1024
 72
1
 73
1
 74
5
  7

 75
16
 76
0
 77
2
 78
300
147
1.0
148
0.0
149
0.0
100
AcDbLayout
  1
Model
 70
1
 71
0
 10
0.0
 20
0.0
 11
420.0
 21
297.0
 12
0.0
 22
0.0
 32
0.0
 14
1e+20
 24
1e+20
 34
1e+20
 15
-1e+20
 25
-1e+20
 35
-1e+20
146
0.0
 13
0.0
 23
0.0
 33
0.0
 16
1.0
 26
0.0
 36
0.0
 17
0.0
 27
1.0
 37
0.0
 76
1
330
17
  0
LAYOUT
  5
1E
330
D
100
AcDbPlotSettings
  1

  2
Adobe PDF
  4
A3
  6

 40
7.5
 41
20.0
 42
7.5
 43
20.0
 44
420.0
 45
297.0
 46
0.0
 47
0.0
 48
0.0
 49
0.0
140
0.0
141
0.0
142
1.0
143
1.0
 70
0
 72
1
 73
1
 74
5
  7

 75
16
 76
0
 77
2
 78
300
147
1.0
148
0.0
149
0.0
100
AcDbLayout
  1
Layout1
 70
1
 71
1
 10
0.0
 20
0.0
 11
420.0
 21
297.0
 12
0.0
 22
0.0
 32
0.0
 14
1e+20
 24
1e+20
 34
1e+20
 15
-1e+20
 25
-1e+20
 35
-1e+20
146
0.0
 13
0.0
 23
0.0
 33
0.0
 16
1.0
 26
0.0
 36
0.0
 17
0.0
 27
1.0
 37
0.0
 76
1
330
1B
  0
MATERIAL
  5
1F
102
{ACAD_REACTORS
330
E
102
}
330
E
100
AcDbMaterial
  1
ByBlock
  2

 70
0
 40
1.0
 71
1
 41
1.0
 91
-1023410177
 42
1.0
 72
1
  3

 73
1
 74
1
 75
1
 44
0.5
 73
0
 45
1.0
 46
1.0
 77
1
  4

 78
1
 79
1
170
1
 48
1.0
171
1
  6

172
1
173
1
174
1
140
1.0
141
1.0
175
1
  7

176
1
177
1
178
1
143
1.0
179
1
  8

270
1
271
1
272
1
145
1.0
146
1.0
273
1
  9

274
1
275
1
276
1
 42
1.0
 72
1
  3

 73
1
 74
1
 75
1
 94
63
  0
MATERIAL
  5
20
102
{ACAD_REACTORS
330
E
102
}
330
E
100
AcDbMaterial
  1
ByLayer
  2

 70
0
 40
1.0
 71
1
 41
1.0
 91
-1023410177
 42
1.0
 72
1
  3

 73
1
 74
1
 75
1
 44
0.5
 73
0
 45
1.0
 46
1.0
 77
1
  4

 78
1
 79
1
170
1
 48
1.0
171
1
  6

172
1
173
1
174
1
140
1.0
141
1.0
175
1
  7

176
1
177
1
178
1
143
1.0
179
1
  8

270
1
271
1
272
1
145
1.0
146
1.0
273
1
  9

274
1
275
1
276
1
 42
1.0
 72
1
  3

 73
1
 74
1
 75
1
 94
63
  0
MATERIAL
  5
21
102
{ACAD_REACTORS
330
E
102
}
330
E
100
AcDbMaterial
  1
Global
  2

 70
0
 40
1.0
 71
1
 41
1.0
 91
-1023410177
 42
1.0
 72
1
  3

 73
1
 74
1
 75
1
 44
0.5
 73
0
 45
1.0
 46
1.0
 77
1
  4

 78
1
 79
1
170
1
 48
1.0
171
1
  6

172
1
173
1
174
1
140
1.0
141
1.0
175
1
  7

176
1
177
1
178
1
143
1.0
179
1
  8

270
1
271
1
272
1
145
1.0
146
1.0
273
1
  9

274
1
275
1
276
1
 42
1.0
 72
1
  3

 73
1
 74
1
 75
1
 94
63
  0
MLINESTYLE
  5
22
102
{ACAD_REACTORS
330
10
102
}
330
10
100
AcDbMlineStyle
  2
Standard
 70
0
  3

 62
256
 51
90.0
 52
90.0
 71
2
 49
0.5
 62
256
  6
BYLAYER
 49
-0.5
 62
256
  6
BYLAYER
  0
MLEADERSTYLE
  5
2C
102
{ACAD_REACTORS
330
F
102
}
330
F
100
AcDbMLeaderStyle
179
2
170
2
171
1
172
0
 90
2
 40
0.0
 41
0.0
173
1
 91
-1056964608
 92
-2
290
1
 42
2.0
291
1
 43
8.0
  3
Standard
 44
4.0
300

342
29
174
1
175
1
176
0
178
1
 93
-1056964608
 45
4.0
292
0
297
0
 46
4.0
 94
-1056964608
 47
1.0
 49
1.0
140
1.0
294
1
141
0.0
177
0
142
1.0
295
0
296
0
143
3.75
271
0
272
9
273
9
  0
DICTIONARY
  5
2D
330
A
100
AcDbDictionary
280
1
281
1
  3
CREATED_BY_EZDXF
350
2E
  3
WRITTEN_BY_EZDXF
350
7A
  0
DICTIONARYVAR
  5
2E
330
2D
100
DictionaryVariables
280
0
  1
0.18.1 @ 2022-10-17T08:54:12.939096+00:00
  0
DICTIONARYVAR
  5
7A
330
2D
100
DictionaryVariables
280
0
  1
0.18.1 @ 2022-10-17T08:54:12.945974+00:00
  0
ENDSEC
  0
EOF
