  0
SECTION
  2
HEADER
  9
$ACADVER
  1
AC1024
  9
$ACADMAINTVER
 70
6
  9
$DWGCODEPAGE
  3
ANSI_1252
  9
$LASTSAVEDBY
  1
ezdxf
  9
$INSBASE
 10
0.0
 20
0.0
 30
0.0
  9
$EXTMIN
 10
1e+20
 20
1e+20
 30
1e+20
  9
$EXTMAX
 10
-1e+20
 20
-1e+20
 30
-1e+20
  9
$LIMMIN
 10
0.0
 20
0.0
  9
$LIMMAX
 10
420.0
 20
297.0
  9
$ORTHOMODE
 70
0
  9
$REGENMODE
 70
1
  9
$FILLMODE
 70
1
  9
$QTEXTMODE
 70
0
  9
$MIRRTEXT
 70
1
  9
$LTSCALE
 40
1.0
  9
$ATTMODE
 70
1
  9
$TEXTSIZE
 40
2.5
  9
$TRACEWID
 40
1.0
  9
$TEXTSTYLE
  7
Standard
  9
$CLAYER
  8
0
  9
$CELTYPE
  6
ByLayer
  9
$CECOLOR
 62
256
  9
$CELTSCALE
 40
1.0
  9
$DISPSILH
 70
0
  9
$DIMSCALE
 40
1.0
  9
$DIMASZ
 40
2.5
  9
$DIMEXO
 40
0.625
  9
$DIMDLI
 40
3.75
  9
$DIMRND
 40
0.0
  9
$DIMDLE
 40
0.0
  9
$DIMEXE
 40
1.25
  9
$DIMTP
 40
0.0
  9
$DIMTM
 40
0.0
  9
$DIMTXT
 40
2.5
  9
$DIMCEN
 40
2.5
  9
$DIMTSZ
 40
0.0
  9
$DIMTOL
 70
0
  9
$DIMLIM
 70
0
  9
$DIMTIH
 70
0
  9
$DIMTOH
 70
0
  9
$DIMSE1
 70
0
  9
$DIMSE2
 70
0
  9
$DIMTAD
 70
1
  9
$DIMZIN
 70
8
  9
$DIMBLK
  1

  9
$DIMASO
 70
1
  9
$DIMSHO
 70
1
  9
$DIMPOST
  1

  9
$DIMAPOST
  1

  9
$DIMALT
 70
0
  9
$DIMALTD
 70
3
  9
$DIMALTF
 40
0.03937007874
  9
$DIMLFAC
 40
1.0
  9
$DIMTOFL
 70
1
  9
$DIMTVP
 40
0.0
  9
$DIMTIX
 70
0
  9
$DIMSOXD
 70
0
  9
$DIMSAH
 70
0
  9
$DIMBLK1
  1

  9
$DIMBLK2
  1

  9
$DIMSTYLE
  2
ISO-25
  9
$DIMCLRD
 70
0
  9
$DIMCLRE
 70
0
  9
$DIMCLRT
 70
0
  9
$DIMTFAC
 40
1.0
  9
$DIMGAP
 40
0.625
  9
$DIMJUST
 70
0
  9
$DIMSD1
 70
0
  9
$DIMSD2
 70
0
  9
$DIMTOLJ
 70
0
  9
$DIMTZIN
 70
8
  9
$DIMALTZ
 70
0
  9
$DIMALTTZ
 70
0
  9
$DIMUPT
 70
0
  9
$DIMDEC
 70
2
  9
$DIMTDEC
 70
2
  9
$DIMALTU
 70
2
  9
$DIMALTTD
 70
3
  9
$DIMTXSTY
  7
Standard
  9
$DIMAUNIT
 70
0
  9
$DIMADEC
 70
0
  9
$DIMALTRND
 40
0.0
  9
$DIMAZIN
 70
0
  9
$DIMDSEP
 70
44
  9
$DIMATFIT
 70
3
  9
$DIMFRAC
 70
0
  9
$DIMLDRBLK
  1

  9
$DIMLUNIT
 70
2
  9
$DIMLWD
 70
-2
  9
$DIMLWE
 70
-2
  9
$DIMTMOVE
 70
0
  9
$DIMFXL
 40
1.0
  9
$DIMFXLON
 70
0
  9
$DIMJOGANG
 40
0.785398163397
  9
$DIMTFILL
 70
0
  9
$DIMTFILLCLR
 70
0
  9
$DIMARCSYM
 70
0
  9
$DIMLTYPE
  6

  9
$DIMLTEX1
  6

  9
$DIMLTEX2
  6

  9
$DIMTXTDIRECTION
 70
0
  9
$LUNITS
 70
2
  9
$LUPREC
 70
4
  9
$SKETCHINC
 40
1.0
  9
$FILLETRAD
 40
10.0
  9
$AUNITS
 70
0
  9
$AUPREC
 70
2
  9
$MENU
  1
.
  9
$ELEVATION
 40
0.0
  9
$PELEVATION
 40
0.0
  9
$THICKNESS
 40
0.0
  9
$LIMCHECK
 70
0
  9
$CHAMFERA
 40
0.0
  9
$CHAMFERB
 40
0.0
  9
$CHAMFERC
 40
0.0
  9
$CHAMFERD
 40
0.0
  9
$SKPOLY
 70
0
  9
$TDCREATE
 40
2459874.5941319442
  9
$TDUCREATE
 40
2458532.153996898
  9
$TDUPDATE
 40
2459874.5941319442
  9
$TDUUPDATE
 40
2458532.1544311
  9
$TDINDWG
 40
0.0
  9
$TDUSRTIMER
 40
0.0
  9
$USRTIMER
 70
1
  9
$ANGBASE
 50
0.0
  9
$ANGDIR
 70
0
  9
$PDMODE
 70
0
  9
$PDSIZE
 40
0.0
  9
$PLINEWID
 40
0.0
  9
$SPLFRAME
 70
0
  9
$SPLINETYPE
 70
6
  9
$SPLINESEGS
 70
8
  9
$HANDSEED
  5
33
  9
$SURFTAB1
 70
6
  9
$SURFTAB2
 70
6
  9
$SURFTYPE
 70
6
  9
$SURFU
 70
6
  9
$SURFV
 70
6
  9
$UCSBASE
  2

  9
$UCSNAME
  2

  9
$UCSORG
 10
0.0
 20
0.0
 30
0.0
  9
$UCSXDIR
 10
1.0
 20
0.0
 30
0.0
  9
$UCSYDIR
 10
0.0
 20
1.0
 30
0.0
  9
$UCSORTHOREF
  2

  9
$UCSORTHOVIEW
 70
0
  9
$UCSORGTOP
 10
0.0
 20
0.0
 30
0.0
  9
$UCSORGBOTTOM
 10
0.0
 20
0.0
 30
0.0
  9
$UCSORGLEFT
 10
0.0
 20
0.0
 30
0.0
  9
$UCSORGRIGHT
 10
0.0
 20
0.0
 30
0.0
  9
$UCSORGFRONT
 10
0.0
 20
0.0
 30
0.0
  9
$UCSORGBACK
 10
0.0
 20
0.0
 30
0.0
  9
$PUCSBASE
  2

  9
$PUCSNAME
  2

  9
$PUCSORG
 10
0.0
 20
0.0
 30
0.0
  9
$PUCSXDIR
 10
1.0
 20
0.0
 30
0.0
  9
$PUCSYDIR
 10
0.0
 20
1.0
 30
0.0
  9
$PUCSORTHOREF
  2

  9
$PUCSORTHOVIEW
 70
0
  9
$PUCSORGTOP
 10
0.0
 20
0.0
 30
0.0
  9
$PUCSORGBOTTOM
 10
0.0
 20
0.0
 30
0.0
  9
$PUCSORGLEFT
 10
0.0
 20
0.0
 30
0.0
  9
$PUCSORGRIGHT
 10
0.0
 20
0.0
 30
0.0
  9
$PUCSORGFRONT
 10
0.0
 20
0.0
 30
0.0
  9
$PUCSORGBACK
 10
0.0
 20
0.0
 30
0.0
  9
$USERI1
 70
0
  9
$USERI2
 70
0
  9
$USERI3
 70
0
  9
$USERI4
 70
0
  9
$USERI5
 70
0
  9
$USERR1
 40
0.0
  9
$USERR2
 40
0.0
  9
$USERR3
 40
0.0
  9
$USERR4
 40
0.0
  9
$USERR5
 40
0.0
  9
$WORLDVIEW
 70
1
  9
$SHADEDGE
 70
3
  9
$SHADEDIF
 70
70
  9
$TILEMODE
 70
1
  9
$MAXACTVP
 70
64
  9
$PINSBASE
 10
0.0
 20
0.0
 30
0.0
  9
$PLIMCHECK
 70
0
  9
$PEXTMIN
 10
1e+20
 20
1e+20
 30
1e+20
  9
$PEXTMAX
 10
-1e+20
 20
-1e+20
 30
-1e+20
  9
$PLIMMIN
 10
0.0
 20
0.0
  9
$PLIMMAX
 10
420.0
 20
297.0
  9
$UNITMODE
 70
0
  9
$VISRETAIN
 70
1
  9
$PLINEGEN
 70
0
  9
$PSLTSCALE
 70
1
  9
$TREEDEPTH
 70
3020
  9
$CMLSTYLE
  2
Standard
  9
$CMLJUST
 70
0
  9
$CMLSCALE
 40
20.0
  9
$PROXYGRAPHICS
 70
1
  9
$MEASUREMENT
 70
1
  9
$CELWEIGHT
370
-1
  9
$ENDCAPS
280
0
  9
$JOINSTYLE
280
0
  9
$LWDISPLAY
290
0
  9
$INSUNITS
 70
6
  9
$HYPERLINKBASE
  1

  9
$STYLESHEET
  1

  9
$XEDIT
290
1
  9
$CEPSNTYPE
380
0
  9
$PSTYLEMODE
290
1
  9
$FINGERPRINTGUID
  2
{D6DE35D9-3169-44CB-99CA-4B6FE04A738C}
  9
$VERSIONGUID
  2
{F0D341F2-AE63-4024-B58B-7B8C688B14DF}
  9
$EXTNAMES
290
1
  9
$PSVPSCALE
 40
0.0
  9
$OLESTARTUP
290
0
  9
$SORTENTS
280
127
  9
$INDEXCTL
280
0
  9
$HIDETEXT
280
1
  9
$XCLIPFRAME
280
0
  9
$HALOGAP
280
0
  9
$OBSCOLOR
 70
257
  9
$OBSLTYPE
280
0
  9
$INTERSECTIONDISPLAY
280
0
  9
$INTERSECTIONCOLOR
 70
257
  9
$DIMASSOC
280
2
  9
$PROJECTNAME
  1

  9
$CAMERADISPLAY
290
0
  9
$LENSLENGTH
 40
50.0
  9
$CAMERAHEIGHT
 40
0.0
  9
$STEPSPERSEC
 40
24.0
  9
$STEPSIZE
 40
100.0
  9
$3DDWFPREC
 40
2.0
  9
$PSOLWIDTH
 40
0.005
  9
$PSOLHEIGHT
 40
0.08
  9
$LOFTANG1
 40
1.570796326795
  9
$LOFTANG2
 40
1.570796326795
  9
$LOFTMAG1
 40
0.0
  9
$LOFTMAG2
 40
0.0
  9
$LOFTPARAM
 70
7
  9
$LOFTNORMALS
280
1
  9
$LATITUDE
 40
37.795
  9
$LONGITUDE
 40
-122.394
  9
$NORTHDIRECTION
 40
0.0
  9
$TIMEZONE
 70
-8000
  9
$LIGHTGLYPHDISPLAY
280
1
  9
$TILEMODELIGHTSYNCH
280
1
  9
$CMATERIAL
347
20
  9
$SOLIDHIST
280
0
  9
$SHOWHIST
280
1
  9
$DWFFRAME
280
2
  9
$DGNFRAME
280
2
  9
$REALWORLDSCALE
290
1
  9
$INTERFERECOLOR
 62
256
  9
$CSHADOW
280
0
  9
$SHADOWPLANELOCATION
 40
0.0
  0
ENDSEC
  0
SECTION
  2
CLASSES
  0
CLASS
  1
ACDBDICTIONARYWDFLT
  2
AcDbDictionaryWithDefault
  3
ObjectDBX Classes
 90
0
 91
0
280
0
281
0
  0
CLASS
  1
SUN
  2
AcDbSun
  3
SCENEOE
 90
1153
 91
0
280
0
281
0
  0
CLASS
  1
VISUALSTYLE
  2
AcDbVisualStyle
  3
ObjectDBX Classes
 90
4095
 91
0
280
0
281
0
  0
CLASS
  1
MATERIAL
  2
AcDbMaterial
  3
ObjectDBX Classes
 90
1153
 91
0
280
0
281
0
  0
CLASS
  1
SCALE
  2
AcDbScale
  3
ObjectDBX Classes
 90
1153
 91
0
280
0
281
0
  0
CLASS
  1
TABLESTYLE
  2
AcDbTableStyle
  3
ObjectDBX Classes
 90
4095
 91
0
280
0
281
0
  0
CLASS
  1
MLEADERSTYLE
  2
AcDbMLeaderStyle
  3
ACDB_MLEADERSTYLE_CLASS
 90
4095
 91
0
280
0
281
0
  0
CLASS
  1
DICTIONARYVAR
  2
AcDbDictionaryVar
  3
ObjectDBX Classes
 90
0
 91
0
280
0
281
0
  0
CLASS
  1
CELLSTYLEMAP
  2
AcDbCellStyleMap
  3
ObjectDBX Classes
 90
1152
 91
0
280
0
281
0
  0
CLASS
  1
MENTALRAYRENDERSETTINGS
  2
AcDbMentalRayRenderSettings
  3
SCENEOE
 90
1024
 91
0
280
0
281
0
  0
CLASS
  1
ACDBDETAILVIEWSTYLE
  2
AcDbDetailViewStyle
  3
ObjectDBX Classes
 90
1025
 91
0
280
0
281
0
  0
CLASS
  1
ACDBSECTIONVIEWSTYLE
  2
AcDbSectionViewStyle
  3
ObjectDBX Classes
 90
1025
 91
0
280
0
281
0
  0
CLASS
  1
RASTERVARIABLES
  2
AcDbRasterVariables
  3
ISM
 90
0
 91
0
280
0
281
0
  0
CLASS
  1
ACDBPLACEHOLDER
  2
AcDbPlaceHolder
  3
ObjectDBX Classes
 90
0
 91
0
280
0
281
0
  0
CLASS
  1
LAYOUT
  2
AcDbLayout
  3
ObjectDBX Classes
 90
0
 91
0
280
0
281
0
  0
ENDSEC
  0
SECTION
  2
TABLES
  0
TABLE
  2
VPORT
  5
8
330
0
100
AcDbSymbolTable
 70
1
  0
VPORT
  5
23
330
8
100
AcDbSymbolTableRecord
100
AcDbViewportTableRecord
  2
*Active
 70
0
 10
0.0
 20
0.0
 11
1.0
 21
1.0
 12
0.0
 22
0.0
 13
0.0
 23
0.0
 14
0.5
 24
0.5
 15
0.5
 25
0.5
 16
0.0
 26
0.0
 36
1.0
 17
0.0
 27
0.0
 37
0.0
 40
1000.0
 41
1.34
 42
50.0
 43
0.0
 44
0.0
 50
0.0
 51
0.0
 71
0
 72
1000
 73
1
 74
3
 75
0
 76
0
 77
0
 78
0
281
0
 65
0
146
0.0
  0
ENDTAB
  0
TABLE
  2
LTYPE
  5
2
330
0
100
AcDbSymbolTable
 70
3
  0
LTYPE
  5
24
330
2
100
AcDbSymbolTableRecord
100
AcDbLinetypeTableRecord
  2
ByBlock
 70
0
  3

 72
65
 73
0
 40
0.0
  0
LTYPE
  5
25
330
2
100
AcDbSymbolTableRecord
100
AcDbLinetypeTableRecord
  2
ByLayer
 70
0
  3

 72
65
 73
0
 40
0.0
  0
LTYPE
  5
26
330
2
100
AcDbSymbolTableRecord
100
AcDbLinetypeTableRecord
  2
Continuous
 70
0
  3

 72
65
 73
0
 40
0.0
  0
ENDTAB
  0
TABLE
  2
LAYER
  5
1
330
0
100
AcDbSymbolTable
 70
2
  0
LAYER
  5
27
330
1
100
AcDbSymbolTableRecord
100
AcDbLayerTableRecord
  2
0
 70
0
 62
7
  6
Continuous
370
-3
390
13
347
21
  0
LAYER
  5
28
330
1
100
AcDbSymbolTableRecord
100
AcDbLayerTableRecord
  2
Defpoints
 70
0
 62
7
  6
Continuous
290
0
370
-3
390
13
347
21
  0
ENDTAB
  0
TABLE
  2
STYLE
  5
5
330
0
100
AcDbSymbolTable
 70
1
  0
STYLE
  5
29
330
5
100
AcDbSymbolTableRecord
100
AcDbTextStyleTableRecord
  2
Standard
 70
0
 40
0.0
 41
1.0
 50
0.0
 71
0
 42
2.5
  3
txt
  4

  0
ENDTAB
  0
TABLE
  2
VIEW
  5
7
330
0
100
AcDbSymbolTable
 70
0
  0
ENDTAB
  0
TABLE
  2
UCS
  5
6
330
0
100
AcDbSymbolTable
 70
0
  0
ENDTAB
  0
TABLE
  2
APPID
  5
3
330
0
100
AcDbSymbolTable
 70
3
  0
APPID
  5
2A
330
3
100
AcDbSymbolTableRecord
100
AcDbRegAppTableRecord
  2
ACAD
 70
0
  0
APPID
  5
30
330
3
100
AcDbSymbolTableRecord
100
AcDbRegAppTableRecord
  2
HATCHBACKGROUNDCOLOR
 70
0
  0
APPID
  5
31
330
3
100
AcDbSymbolTableRecord
100
AcDbRegAppTableRecord
  2
EZDXF
 70
0
  0
ENDTAB
  0
TABLE
  2
DIMSTYLE
  5
4
330
0
100
AcDbSymbolTable
 70
1
100
AcDbDimStyleTable
  0
DIMSTYLE
105
2B
330
4
100
AcDbSymbolTableRecord
100
AcDbDimStyleTableRecord
  2
Standard
 70
0
 40
1.0
 41
2.5
 42
0.625
 43
3.75
 44
1.25
 45
0.0
 46
0.0
 47
0.0
 48
0.0
 49
2.5
140
2.5
141
2.5
142
0.0
143
0.03937007874
144
1.0
145
0.0
146
1.0
147
0.625
148
0.0
 69
0
 70
0
 71
0
 72
0
 73
0
 74
0
 75
0
 76
0
 77
1
 78
8
 79
3
170
0
171
3
172
1
173
0
174
0
175
0
176
0
177
0
178
0
179
2
271
2
272
2
273
2
274
3
275
0
276
0
277
2
278
44
279
0
280
0
281
0
282
0
283
0
284
8
285
0
286
0
288
0
289
3
290
0
371
-2
372
-2
  0
ENDTAB
  0
TABLE
  2
BLOCK_RECORD
  5
9
330
0
100
AcDbSymbolTable
 70
2
  0
BLOCK_RECORD
  5
17
330
9
100
AcDbSymbolTableRecord
100
AcDbBlockTableRecord
  2
*Model_Space
340
1A
 70
0
280
1
281
0
  0
BLOCK_RECORD
  5
1B
330
9
100
AcDbSymbolTableRecord
100
AcDbBlockTableRecord
  2
*Paper_Space
340
1E
 70
0
280
1
281
0
  0
ENDTAB
  0
ENDSEC
  0
SECTION
  2
BLOCKS
  0
BLOCK
  5
18
330
17
100
AcDbEntity
  8
0
100
AcDbBlockBegin
  2
*Model_Space
 70
0
 10
0.0
 20
0.0
 30
0.0
  3
*Model_Space
  1

  0
ENDBLK
  5
19
330
17
100
AcDbEntity
  8
0
100
AcDbBlockEnd
  0
BLOCK
  5
1C
330
1B
100
AcDbEntity
  8
0
100
AcDbBlockBegin
  2
*Paper_Space
 70
0
 10
0.0
 20
0.0
 30
0.0
  3
*Paper_Space
  1

  0
ENDBLK
  5
1D
330
1B
100
AcDbEntity
  8
0
100
AcDbBlockEnd
  0
ENDSEC
  0
SECTION
  2
ENTITIES
  0
LWPOLYLINE
  5
2F
330
17
100
AcDbEntity
  8
0
100
AcDbPolyline
 90
294
 70
1
 10
-127.5693576464748
 20
-250.0
 10
-127.9992252939323
 20
-245.1988687192375
 10
-127.9992252939323
 20
-245.1988687192375
 10
-124.34032870706201
 20
-230.0
 10
-134.340328707062
 20
-230.0
 10
-134.340328707062
 20
-227.0
 10
-123.6181243138681
 20
-227.0
 10
-122.0011738402393
 20
-220.2832706826474
 10
-122.0011738402393
 20
-220.2832706826474
 10
-121.25595346893631
 20
-217.61363636363637
 10
-131.2559534689363
 20
-217.61363636363637
 10
-131.2559534689363
 20
-214.61363636363637
 10
-120.4185125138256
 20
-214.61363636363637
 10
-118.9797977543183
 20
-209.4596678931652
 10
-118.9797977543183
 20
-209.4596678931652
 10
-117.54583280835143
 20
-205.22727272727275
 10
-127.54583280835143
 20
-205.22727272727275
 10
-127.54583280835143
 20
-202.22727272727275
 10
-116.52941192389144
 20
-202.22727272727275
 10
-114.6209905749553
 20
-196.5945037293687
 10
-114.6209905749553
 20
-196.5945037293687
 10
-112.99553666466036
 20
-192.8409090909091
 10
-122.99553666466036
 20
-192.8409090909091
 10
-122.99553666466036
 20
-189.8409090909091
 10
-111.69641883213757
 20
-189.8409090909091
 10
-109.8548912897315
 20
-185.5883443974587
 10
-109.8548912897315
 20
-185.5883443974587
 10
-108.13560189815148
 20
-180.45454545454547
 10
-118.13560189815148
 20
-180.45454545454547
 10
-118.13560189815148
 20
-177.45454545454547
 10
-107.13091351200809
 20
-177.45454545454547
 10
-106.734580161995
 20
-176.2710938824581
 10
-106.734580161995
 20
-176.2710938824581
 10
-102.53131611570441
 20
-168.06818181818184
 10
-112.53131611570441
 20
-168.06818181818184
 10
-112.53131611570441
 20
-165.06818181818184
 10
-100.99408250402308
 20
-165.06818181818184
 10
-98.69405165582756
 20
-160.5795390431649
 10
-98.69405165582756
 20
-160.5795390431649
 10
-95.895551875091
 20
-155.6818181818182
 10
-105.895551875091
 20
-155.6818181818182
 10
-105.895551875091
 20
-152.6818181818182
 10
-94.18138735247237
 20
-152.6818181818182
 10
-88.92055016331047
 20
-143.4747022024397
 10
-88.92055016331047
 20
-143.4747022024397
 10
-88.82070709049158
 20
-143.29545454545456
 10
-98.82070709049158
 20
-143.29545454545456
 10
-98.82070709049158
 20
-140.29545454545456
 10
-87.1496714770022
 20
-140.29545454545456
 10
-83.75045055616643
 20
-134.1928540501766
 10
-83.75045055616643
 20
-134.1928540501766
 10
-82.09856352681251
 20
-130.90909090909093
 10
-92.09856352681251
 20
-130.90909090909093
 10
-92.09856352681251
 20
-127.90909090909093
 10
-80.5894226798197
 20
-127.90909090909093
 10
-75.86764109036498
 20
-118.52272727272731
 10
-85.86764109036498
 20
-118.52272727272731
 10
-85.86764109036498
 20
-115.52272727272731
 10
-74.35850024337219
 20
-115.52272727272731
 10
-72.87115111522066
 20
-112.5660467260799
 10
-72.87115111522066
 20
-112.5660467260799
 10
-72.10092630419823
 20
-109.8658876996553
 10
-72.10092630419823
 20
-109.8658876996553
 10
-71.53994681690288
 20
-106.13636363636367
 10
-81.53994681690288
 20
-106.13636363636367
 10
-81.53994681690288
 20
-103.13636363636367
 10
-70.9860753371472
 20
-103.13636363636367
 10
-69.0085203218833
 20
-95.03692462533928
 10
-69.0085203218833
 20
-95.03692462533928
 10
-68.88933679071849
 20
-93.75000000000003
 10
-78.88933679071849
 20
-93.75000000000003
 10
-78.88933679071849
 20
-90.75000000000003
 10
-68.61150343012041
 20
-90.75000000000003
 10
-68.53127565098788
 20
-89.88371332773193
 10
-68.53127565098788
 20
-89.88371332773193
 10
-68.6987112793619
 20
-85.2118689478682
 10
-68.6987112793619
 20
-85.2118689478682
 10
-68.96692589364112
 20
-81.3636363636364
 10
-78.96692589364112
 20
-81.3636363636364
 10
-78.96692589364112
 20
-78.3636363636364
 10
-69.17602028313689
 20
-78.3636363636364
 10
-69.40829991517579
 20
-75.03098407297888
 10
-69.40829991517579
 20
-75.03098407297888
 10
-70.59557478150175
 20
-70.68855717798314
 10
-70.59557478150175
 20
-70.68855717798314
 10
-71.03668918682291
 20
-68.97727272727278
 10
-81.03668918682291
 20
-68.97727272727278
 10
-81.03668918682291
 20
-65.97727272727278
 10
-71.8099932482337
 20
-65.97727272727278
 10
-72.73170912759035
 20
-62.40151543327211
 10
-72.73170912759035
 20
-62.40151543327211
 10
-73.49450068060226
 20
-59.80730499593938
 10
-73.49450068060226
 20
-59.80730499593938
 10
-74.20154441214316
 20
-56.59090909090912
 10
-84.20154441214316
 20
-56.59090909090912
 10
-84.20154441214316
 20
-53.59090909090912
 10
-74.86101894738475
 20
-53.59090909090912
 10
-75.13372462655977
 20
-52.35035014009932
 10
-75.13372462655977
 20
-52.35035014009932
 10
-75.62018394042363
 20
-50.60169829712422
 10
-75.62018394042363
 20
-50.60169829712422
 10
-77.56083645977559
 20
-44.204545454545496
 10
-87.56083645977559
 20
-44.204545454545496
 10
-87.56083645977559
 20
-41.204545454545496
 10
-78.54711009073206
 20
-41.204545454545496
 10
-78.73165112609153
 20
-40.72021964439911
 10
-78.73165112609153
 20
-40.72021964439911
 10
-80.84965091142351
 20
-33.8053551215961
 10
-80.84965091142351
 20
-33.8053551215961
 10
-81.5710375165401
 20
-31.85921266586589
 10
-81.5710375165401
 20
-31.85921266586589
 10
-81.58535203800436
 20
-31.81818181818187
 10
-91.58535203800436
 20
-31.81818181818187
 10
-91.58535203800436
 20
-28.81818181818187
 10
-82.63196859156628
 20
-28.81818181818187
 10
-84.35200461905742
 20
-23.88790619344407
 10
-84.35200461905742
 20
-23.88790619344407
 10
-85.97175763075917
 20
-19.431818181818244
 10
-95.97175763075917
 20
-19.431818181818244
 10
-95.97175763075917
 20
-16.431818181818244
 10
-87.06382204517374
 20
-16.431818181818244
 10
-88.26588062271867
 20
-13.13202016990649
 10
-88.26588062271867
 20
-13.13202016990649
 10
-91.14059372374854
 20
-7.045454545454617
 10
-101.14059372374854
 20
-7.045454545454617
 10
-101.14059372374854
 20
-4.045454545454618
 10
-92.55750760182183
 20
-4.045454545454618
 10
-93.94230405124527
 20
-1.11345605736056
 10
-93.94230405124527
 20
-1.11345605736056
 10
-94.06896599993871
 20
-0.8180323027065645
 10
-94.06896599993871
 20
-0.8180323027065645
 10
-94.31799627037965
 20
-0.3268922957280346
 10
-94.31799627037965
 20
-0.3268922957280346
 10
-96.65194726645049
 20
5.340909090909035
 10
-106.65194726645049
 20
5.340909090909035
 10
-106.65194726645049
 20
8.340909090909038
 10
-97.88732100497293
 20
8.340909090909038
 10
-101.5001572926876
 20
17.11437458169022
 10
-101.5001572926876
 20
17.11437458169022
 10
-101.78483264467434
 20
17.727272727272663
 10
-111.78483264467434
 20
17.727272727272663
 10
-111.78483264467434
 20
20.727272727272663
 10
-103.17825512786462
 20
20.727272727272663
 10
-104.3452576789244
 20
23.23979688660996
 10
-104.3452576789244
 20
23.23979688660996
 10
-106.49988910226821
 20
30.113636363636317
 10
-116.49988910226821
 20
30.113636363636317
 10
-116.49988910226821
 20
33.11363636363632
 10
-107.44025064135201
 20
33.11363636363632
 10
-108.8947617142219
 20
37.75390825614811
 10
-108.8947617142219
 20
37.75390825614811
 10
-111.01305818947893
 20
42.49999999999994
 10
-121.01305818947893
 20
42.49999999999994
 10
-121.01305818947893
 20
45.49999999999994
 10
-112.35203134228477
 20
45.49999999999994
 10
-114.5976764544025
 20
50.53141927994276
 10
-114.5976764544025
 20
50.53141927994276
 10
-115.21561804370498
 20
54.88636363636357
 10
-125.21561804370498
 20
54.88636363636357
 10
-125.21561804370498
 20
57.88636363636357
 10
-115.78830576959902
 20
57.88636363636357
 10
-117.62817069824568
 20
67.2727272727272
 10
-127.62817069824568
 20
67.2727272727272
 10
-127.62817069824568
 20
70.2727272727272
 10
-118.21621469481072
 20
70.2727272727272
 10
-119.7389139491369
 20
78.04101976387129
 10
-119.7389139491369
 20
78.04101976387129
 10
-119.89060271225063
 20
79.65909090909082
 10
-129.89060271225063
 20
79.65909090909082
 10
-129.89060271225063
 20
82.65909090909082
 10
-120.17184268781389
 20
82.65909090909082
 10
-120.3287229693768
 20
84.3325402249148
 10
-120.3287229693768
 20
84.3325402249148
 10
-121.86238756545927
 20
92.04545454545445
 10
-131.86238756545927
 20
92.04545454545445
 10
-131.86238756545927
 20
95.04545454545445
 10
-122.45891873345046
 20
95.04545454545445
 10
-124.0715648656176
 20
103.1555729367418
 10
-124.0715648656176
 20
103.1555729367418
 10
-124.40858128250338
 20
104.43181818181807
 10
-134.40858128250338
 20
104.43181818181807
 10
-134.40858128250338
 20
107.43181818181807
 10
-125.20078736872223
 20
107.43181818181807
 10
-125.6830683899262
 20
109.2581649983612
 10
-125.6830683899262
 20
109.2581649983612
 10
-127.47776970687964
 20
116.81818181818176
 10
-137.47776970687966
 20
116.81818181818176
 10
-137.47776970687966
 20
119.81818181818176
 10
-128.18995118467006
 20
119.81818181818176
 10
-128.885656812425
 20
122.7487787914984
 10
-128.885656812425
 20
122.7487787914984
 10
-129.60386812731718
 20
129.20454545454538
 10
-139.60386812731718
 20
129.20454545454538
 10
-139.60386812731718
 20
132.20454545454538
 10
-129.87823600008394
 20
132.20454545454538
 10
-130.4956491863896
 20
140.3730401100776
 10
-130.4956491863896
 20
140.3730401100776
 10
-130.52214032110064
 20
141.590909090909
 10
-140.52214032110064
 20
141.590909090909
 10
-140.52214032110064
 20
144.590909090909
 10
-130.58739644091642
 20
144.590909090909
 10
-130.7010538928155
 20
149.8160489959434
 10
-130.7010538928155
 20
149.8160489959434
 10
-130.5754284816079
 20
153.97727272727263
 10
-140.5754284816079
 20
153.97727272727263
 10
-140.5754284816079
 20
156.97727272727263
 10
-130.47504827454947
 20
156.97727272727263
 10
-129.42123642280674
 20
166.36363636363626
 10
-139.42123642280674
 20
166.36363636363626
 10
-139.42123642280674
 20
169.36363636363626
 10
-129.05104538737078
 20
169.36363636363626
 10
-128.8093850096249
 20
171.2780852220586
 10
-128.8093850096249
 20
171.2780852220586
 10
-128.08359693596458
 20
178.7499999999999
 10
-138.08359693596458
 20
178.7499999999999
 10
-138.08359693596458
 20
181.7499999999999
 10
-127.7921904778223
 20
181.7499999999999
 10
-127.5730951817826
 20
184.0055639031106
 10
-127.5730951817826
 20
184.0055639031106
 10
-127.4028450600569
 20
185.3639351294239
 10
-127.4028450600569
 20
185.3639351294239
 10
-126.3364490713476
 20
191.1363636363635
 10
-136.3364490713476
 20
191.1363636363635
 10
-136.3364490713476
 20
194.1363636363635
 10
-125.53666688442364
 20
194.1363636363635
 10
-124.1926577094981
 20
198.9501363622995
 10
-124.1926577094981
 20
198.9501363622995
 10
-123.5015653161959
 20
201.010455283211
 10
-123.5015653161959
 20
201.010455283211
 10
-122.40858627076888
 20
203.52272727272714
 10
-132.40858627076886
 20
203.52272727272714
 10
-132.40858627076886
 20
206.52272727272714
 10
-121.1034182197122
 20
206.52272727272714
 10
-117.8775061419653
 20
213.937662250185
 10
-117.8775061419653
 20
213.937662250185
 10
-116.91838488933317
 20
215.90909090909076
 10
-126.91838488933317
 20
215.90909090909076
 10
-126.91838488933317
 20
218.90909090909076
 10
-115.4588526131343
 20
218.90909090909076
 10
-112.578661695202
 20
224.8291879803936
 10
-112.578661695202
 20
224.8291879803936
 10
-110.91503032647775
 20
228.29545454545445
 10
-120.91503032647775
 20
228.29545454545445
 10
-120.91503032647775
 20
231.29545454545445
 10
-109.40419822581725
 20
231.29545454545445
 10
-104.71694334303
 20
239.360890704652
 10
-104.71694334303
 20
239.360890704652
 10
-103.32549584104075
 20
240.68181818181807
 10
-113.32549584104075
 20
240.68181818181807
 10
-113.32549584104075
 20
243.68181818181807
 10
-100.16533559142323
 20
243.68181818181807
 10
-95.87982201684963
 20
247.7501374150838
 10
-95.87982201684963
 20
247.7501374150838
 10
-92.10015751046497
 20
253.0357504532687
 10
-92.10015751046497
 20
253.0357504532687
 10
-92.06443197757243
 20
253.0681818181817
 10
-102.06443197757243
 20
253.0681818181817
 10
-102.06443197757243
 20
256.0681818181817
 10
-88.75971140953268
 20
256.0681818181817
 10
-82.4157401776309
 20
261.827190274075
 10
-82.4157401776309
 20
261.827190274075
 10
-79.88933063847426
 20
265.4545454545453
 10
-89.88933063847426
 20
265.4545454545453
 10
-89.88933063847426
 20
268.4545454545453
 10
-77.79986648611433
 20
268.4545454545453
 10
-75.97338556825048
 20
271.0769607505449
 10
-75.97338556825048
 20
271.0769607505449
 10
-72.06466222510934
 20
274.8328385333717
 10
-72.06466222510934
 20
274.8328385333717
 10
-69.64696910291212
 20
277.84090909090895
 10
-79.64696910291212
 20
277.84090909090895
 10
-79.64696910291212
 20
280.84090909090895
 10
-67.2357625743891
 20
280.84090909090895
 10
-64.40254275920698
 20
284.3659739681813
 10
-64.40254275920698
 20
284.3659739681813
 10
-62.0365846115281
 20
286.4495464661699
 10
-62.0365846115281
 20
286.4495464661699
 10
-58.921306146291464
 20
290.22727272727263
 10
-68.92130614629147
 20
290.22727272727263
 10
-68.92130614629147
 20
293.22727272727263
 10
-56.44737480511963
 20
293.22727272727263
 10
-55.34528283496117
 20
294.5637188345075
 10
-55.34528283496117
 20
294.5637188345075
 10
-53.47864363863719
 20
296.4653908246665
 10
-53.47864363863719
 20
296.4653908246665
 10
-48.54187366397834
 20
302.61363636363626
 10
-58.54187366397834
 20
302.61363636363626
 10
-58.54187366397834
 20
305.61363636363626
 10
-45.94541736872869
 20
305.61363636363626
 10
-45.50741727852255
 20
306.0881076677894
 10
-45.50741727852255
 20
306.0881076677894
 10
-40.57486424502955
 20
314.9999999999999
 10
-1.2468039244413411
 20
314.9999999999999
 10
-1.2468039244413411
 20
-250.0
  0
ENDSEC
  0
SECTION
  2
OBJECTS
  0
DICTIONARY
  5
A
330
0
100
AcDbDictionary
281
1
  3
ACAD_COLOR
350
B
  3
ACAD_GROUP
350
C
  3
ACAD_LAYOUT
350
D
  3
ACAD_MATERIAL
350
E
  3
ACAD_MLEADERSTYLE
350
F
  3
ACAD_MLINESTYLE
350
10
  3
ACAD_PLOTSETTINGS
350
11
  3
ACAD_PLOTSTYLENAME
350
12
  3
ACAD_SCALELIST
350
14
  3
ACAD_TABLESTYLE
350
15
  3
ACAD_VISUALSTYLE
350
16
  3
EZDXF_META
350
2D
  0
DICTIONARY
  5
B
330
A
100
AcDbDictionary
281
1
  0
DICTIONARY
  5
C
330
A
100
AcDbDictionary
281
1
  0
DICTIONARY
  5
D
330
A
100
AcDbDictionary
281
1
  3
Model
350
1A
  3
Layout1
350
1E
  0
DICTIONARY
  5
E
330
A
100
AcDbDictionary
281
1
  3
ByBlock
350
1F
  3
ByLayer
350
20
  3
Global
350
21
  0
DICTIONARY
  5
F
330
A
100
AcDbDictionary
281
1
  3
Standard
350
2C
  0
DICTIONARY
  5
10
330
A
100
AcDbDictionary
281
1
  3
Standard
350
22
  0
DICTIONARY
  5
11
330
A
100
AcDbDictionary
281
1
  0
ACDBDICTIONARYWDFLT
  5
12
330
A
100
AcDbDictionary
281
1
  3
Normal
350
13
100
AcDbDictionaryWithDefault
340
13
  0
ACDBPLACEHOLDER
  5
13
330
12
  0
DICTIONARY
  5
14
330
A
100
AcDbDictionary
281
1
  0
DICTIONARY
  5
15
330
A
100
AcDbDictionary
281
1
  0
DICTIONARY
  5
16
330
A
100
AcDbDictionary
281
1
  0
LAYOUT
  5
1A
330
D
100
AcDbPlotSettings
  1

  2
Adobe PDF
  4
A3
  6

 40
7.5
 41
20.0
 42
7.5
 43
20.0
 44
420.0
 45
297.0
 46
0.0
 47
0.0
 48
0.0
 49
0.0
140
0.0
141
0.0
142
1.0
143
1.0
 70
1024
 72
1
 73
1
 74
5
  7

 75
16
 76
0
 77
2
 78
300
147
1.0
148
0.0
149
0.0
100
AcDbLayout
  1
Model
 70
1
 71
0
 10
0.0
 20
0.0
 11
420.0
 21
297.0
 12
0.0
 22
0.0
 32
0.0
 14
1e+20
 24
1e+20
 34
1e+20
 15
-1e+20
 25
-1e+20
 35
-1e+20
146
0.0
 13
0.0
 23
0.0
 33
0.0
 16
1.0
 26
0.0
 36
0.0
 17
0.0
 27
1.0
 37
0.0
 76
1
330
17
  0
LAYOUT
  5
1E
330
D
100
AcDbPlotSettings
  1

  2
Adobe PDF
  4
A3
  6

 40
7.5
 41
20.0
 42
7.5
 43
20.0
 44
420.0
 45
297.0
 46
0.0
 47
0.0
 48
0.0
 49
0.0
140
0.0
141
0.0
142
1.0
143
1.0
 70
0
 72
1
 73
1
 74
5
  7

 75
16
 76
0
 77
2
 78
300
147
1.0
148
0.0
149
0.0
100
AcDbLayout
  1
Layout1
 70
1
 71
1
 10
0.0
 20
0.0
 11
420.0
 21
297.0
 12
0.0
 22
0.0
 32
0.0
 14
1e+20
 24
1e+20
 34
1e+20
 15
-1e+20
 25
-1e+20
 35
-1e+20
146
0.0
 13
0.0
 23
0.0
 33
0.0
 16
1.0
 26
0.0
 36
0.0
 17
0.0
 27
1.0
 37
0.0
 76
1
330
1B
  0
MATERIAL
  5
1F
102
{ACAD_REACTORS
330
E
102
}
330
E
100
AcDbMaterial
  1
ByBlock
  2

 70
0
 40
1.0
 71
1
 41
1.0
 91
-1023410177
 42
1.0
 72
1
  3

 73
1
 74
1
 75
1
 44
0.5
 73
0
 45
1.0
 46
1.0
 77
1
  4

 78
1
 79
1
170
1
 48
1.0
171
1
  6

172
1
173
1
174
1
140
1.0
141
1.0
175
1
  7

176
1
177
1
178
1
143
1.0
179
1
  8

270
1
271
1
272
1
145
1.0
146
1.0
273
1
  9

274
1
275
1
276
1
 42
1.0
 72
1
  3

 73
1
 74
1
 75
1
 94
63
  0
MATERIAL
  5
20
102
{ACAD_REACTORS
330
E
102
}
330
E
100
AcDbMaterial
  1
ByLayer
  2

 70
0
 40
1.0
 71
1
 41
1.0
 91
-1023410177
 42
1.0
 72
1
  3

 73
1
 74
1
 75
1
 44
0.5
 73
0
 45
1.0
 46
1.0
 77
1
  4

 78
1
 79
1
170
1
 48
1.0
171
1
  6

172
1
173
1
174
1
140
1.0
141
1.0
175
1
  7

176
1
177
1
178
1
143
1.0
179
1
  8

270
1
271
1
272
1
145
1.0
146
1.0
273
1
  9

274
1
275
1
276
1
 42
1.0
 72
1
  3

 73
1
 74
1
 75
1
 94
63
  0
MATERIAL
  5
21
102
{ACAD_REACTORS
330
E
102
}
330
E
100
AcDbMaterial
  1
Global
  2

 70
0
 40
1.0
 71
1
 41
1.0
 91
-1023410177
 42
1.0
 72
1
  3

 73
1
 74
1
 75
1
 44
0.5
 73
0
 45
1.0
 46
1.0
 77
1
  4

 78
1
 79
1
170
1
 48
1.0
171
1
  6

172
1
173
1
174
1
140
1.0
141
1.0
175
1
  7

176
1
177
1
178
1
143
1.0
179
1
  8

270
1
271
1
272
1
145
1.0
146
1.0
273
1
  9

274
1
275
1
276
1
 42
1.0
 72
1
  3

 73
1
 74
1
 75
1
 94
63
  0
MLINESTYLE
  5
22
102
{ACAD_REACTORS
330
10
102
}
330
10
100
AcDbMlineStyle
  2
Standard
 70
0
  3

 62
256
 51
90.0
 52
90.0
 71
2
 49
0.5
 62
256
  6
BYLAYER
 49
-0.5
 62
256
  6
BYLAYER
  0
MLEADERSTYLE
  5
2C
102
{ACAD_REACTORS
330
F
102
}
330
F
100
AcDbMLeaderStyle
179
2
170
2
171
1
172
0
 90
2
 40
0.0
 41
0.0
173
1
 91
-1056964608
 92
-2
290
1
 42
2.0
291
1
 43
8.0
  3
Standard
 44
4.0
300

342
29
174
1
175
1
176
0
178
1
 93
-1056964608
 45
4.0
292
0
297
0
 46
4.0
 94
-1056964608
 47
1.0
 49
1.0
140
1.0
294
1
141
0.0
177
0
142
1.0
295
0
296
0
143
3.75
271
0
272
9
273
9
  0
DICTIONARY
  5
2D
330
A
100
AcDbDictionary
280
1
281
1
  3
CREATED_BY_EZDXF
350
2E
  3
WRITTEN_BY_EZDXF
350
32
  0
DICTIONARYVAR
  5
2E
330
2D
100
DictionaryVariables
280
0
  1
0.18.1 @ 2022-10-21T12:15:33.385512+00:00
  0
DICTIONARYVAR
  5
32
330
2D
100
DictionaryVariables
280
0
  1
0.18.1 @ 2022-10-21T12:15:33.386787+00:00
  0
ENDSEC
  0
EOF
