  0
SECTION
  2
HEADER
  9
$ACADVER
  1
AC1024
  9
$ACADMAINTVER
 70
6
  9
$DWGCODEPAGE
  3
ANSI_1252
  9
$LASTSAVEDBY
  1
ezdxf
  9
$INSBASE
 10
0.0
 20
0.0
 30
0.0
  9
$EXTMIN
 10
1e+20
 20
1e+20
 30
1e+20
  9
$EXTMAX
 10
-1e+20
 20
-1e+20
 30
-1e+20
  9
$LIMMIN
 10
0.0
 20
0.0
  9
$LIMMAX
 10
420.0
 20
297.0
  9
$ORTHOMODE
 70
0
  9
$REGENMODE
 70
1
  9
$FILLMODE
 70
1
  9
$QTEXTMODE
 70
0
  9
$MIRRTEXT
 70
1
  9
$LTSCALE
 40
1.0
  9
$ATTMODE
 70
1
  9
$TEXTSIZE
 40
2.5
  9
$TRACEWID
 40
1.0
  9
$TEXTSTYLE
  7
Standard
  9
$CLAYER
  8
0
  9
$CELTYPE
  6
ByLayer
  9
$CECOLOR
 62
256
  9
$CELTSCALE
 40
1.0
  9
$DISPSILH
 70
0
  9
$DIMSCALE
 40
1.0
  9
$DIMASZ
 40
2.5
  9
$DIMEXO
 40
0.625
  9
$DIMDLI
 40
3.75
  9
$DIMRND
 40
0.0
  9
$DIMDLE
 40
0.0
  9
$DIMEXE
 40
1.25
  9
$DIMTP
 40
0.0
  9
$DIMTM
 40
0.0
  9
$DIMTXT
 40
2.5
  9
$DIMCEN
 40
2.5
  9
$DIMTSZ
 40
0.0
  9
$DIMTOL
 70
0
  9
$DIMLIM
 70
0
  9
$DIMTIH
 70
0
  9
$DIMTOH
 70
0
  9
$DIMSE1
 70
0
  9
$DIMSE2
 70
0
  9
$DIMTAD
 70
1
  9
$DIMZIN
 70
8
  9
$DIMBLK
  1

  9
$DIMASO
 70
1
  9
$DIMSHO
 70
1
  9
$DIMPOST
  1

  9
$DIMAPOST
  1

  9
$DIMALT
 70
0
  9
$DIMALTD
 70
3
  9
$DIMALTF
 40
0.03937007874
  9
$DIMLFAC
 40
1.0
  9
$DIMTOFL
 70
1
  9
$DIMTVP
 40
0.0
  9
$DIMTIX
 70
0
  9
$DIMSOXD
 70
0
  9
$DIMSAH
 70
0
  9
$DIMBLK1
  1

  9
$DIMBLK2
  1

  9
$DIMSTYLE
  2
ISO-25
  9
$DIMCLRD
 70
0
  9
$DIMCLRE
 70
0
  9
$DIMCLRT
 70
0
  9
$DIMTFAC
 40
1.0
  9
$DIMGAP
 40
0.625
  9
$DIMJUST
 70
0
  9
$DIMSD1
 70
0
  9
$DIMSD2
 70
0
  9
$DIMTOLJ
 70
0
  9
$DIMTZIN
 70
8
  9
$DIMALTZ
 70
0
  9
$DIMALTTZ
 70
0
  9
$DIMUPT
 70
0
  9
$DIMDEC
 70
2
  9
$DIMTDEC
 70
2
  9
$DIMALTU
 70
2
  9
$DIMALTTD
 70
3
  9
$DIMTXSTY
  7
Standard
  9
$DIMAUNIT
 70
0
  9
$DIMADEC
 70
0
  9
$DIMALTRND
 40
0.0
  9
$DIMAZIN
 70
0
  9
$DIMDSEP
 70
44
  9
$DIMATFIT
 70
3
  9
$DIMFRAC
 70
0
  9
$DIMLDRBLK
  1

  9
$DIMLUNIT
 70
2
  9
$DIMLWD
 70
-2
  9
$DIMLWE
 70
-2
  9
$DIMTMOVE
 70
0
  9
$DIMFXL
 40
1.0
  9
$DIMFXLON
 70
0
  9
$DIMJOGANG
 40
0.785398163397
  9
$DIMTFILL
 70
0
  9
$DIMTFILLCLR
 70
0
  9
$DIMARCSYM
 70
0
  9
$DIMLTYPE
  6

  9
$DIMLTEX1
  6

  9
$DIMLTEX2
  6

  9
$DIMTXTDIRECTION
 70
0
  9
$LUNITS
 70
2
  9
$LUPREC
 70
4
  9
$SKETCHINC
 40
1.0
  9
$FILLETRAD
 40
10.0
  9
$AUNITS
 70
0
  9
$AUPREC
 70
2
  9
$MENU
  1
.
  9
$ELEVATION
 40
0.0
  9
$PELEVATION
 40
0.0
  9
$THICKNESS
 40
0.0
  9
$LIMCHECK
 70
0
  9
$CHAMFERA
 40
0.0
  9
$CHAMFERB
 40
0.0
  9
$CHAMFERC
 40
0.0
  9
$CHAMFERD
 40
0.0
  9
$SKPOLY
 70
0
  9
$TDCREATE
 40
2459870.6544560185
  9
$TDUCREATE
 40
2458532.153996898
  9
$TDUPDATE
 40
2459870.6544560185
  9
$TDUUPDATE
 40
2458532.1544311
  9
$TDINDWG
 40
0.0
  9
$TDUSRTIMER
 40
0.0
  9
$USRTIMER
 70
1
  9
$ANGBASE
 50
0.0
  9
$ANGDIR
 70
0
  9
$PDMODE
 70
0
  9
$PDSIZE
 40
0.0
  9
$PLINEWID
 40
0.0
  9
$SPLFRAME
 70
0
  9
$SPLINETYPE
 70
6
  9
$SPLINESEGS
 70
8
  9
$HANDSEED
  5
33
  9
$SURFTAB1
 70
6
  9
$SURFTAB2
 70
6
  9
$SURFTYPE
 70
6
  9
$SURFU
 70
6
  9
$SURFV
 70
6
  9
$UCSBASE
  2

  9
$UCSNAME
  2

  9
$UCSORG
 10
0.0
 20
0.0
 30
0.0
  9
$UCSXDIR
 10
1.0
 20
0.0
 30
0.0
  9
$UCSYDIR
 10
0.0
 20
1.0
 30
0.0
  9
$UCSORTHOREF
  2

  9
$UCSORTHOVIEW
 70
0
  9
$UCSORGTOP
 10
0.0
 20
0.0
 30
0.0
  9
$UCSORGBOTTOM
 10
0.0
 20
0.0
 30
0.0
  9
$UCSORGLEFT
 10
0.0
 20
0.0
 30
0.0
  9
$UCSORGRIGHT
 10
0.0
 20
0.0
 30
0.0
  9
$UCSORGFRONT
 10
0.0
 20
0.0
 30
0.0
  9
$UCSORGBACK
 10
0.0
 20
0.0
 30
0.0
  9
$PUCSBASE
  2

  9
$PUCSNAME
  2

  9
$PUCSORG
 10
0.0
 20
0.0
 30
0.0
  9
$PUCSXDIR
 10
1.0
 20
0.0
 30
0.0
  9
$PUCSYDIR
 10
0.0
 20
1.0
 30
0.0
  9
$PUCSORTHOREF
  2

  9
$PUCSORTHOVIEW
 70
0
  9
$PUCSORGTOP
 10
0.0
 20
0.0
 30
0.0
  9
$PUCSORGBOTTOM
 10
0.0
 20
0.0
 30
0.0
  9
$PUCSORGLEFT
 10
0.0
 20
0.0
 30
0.0
  9
$PUCSORGRIGHT
 10
0.0
 20
0.0
 30
0.0
  9
$PUCSORGFRONT
 10
0.0
 20
0.0
 30
0.0
  9
$PUCSORGBACK
 10
0.0
 20
0.0
 30
0.0
  9
$USERI1
 70
0
  9
$USERI2
 70
0
  9
$USERI3
 70
0
  9
$USERI4
 70
0
  9
$USERI5
 70
0
  9
$USERR1
 40
0.0
  9
$USERR2
 40
0.0
  9
$USERR3
 40
0.0
  9
$USERR4
 40
0.0
  9
$USERR5
 40
0.0
  9
$WORLDVIEW
 70
1
  9
$SHADEDGE
 70
3
  9
$SHADEDIF
 70
70
  9
$TILEMODE
 70
1
  9
$MAXACTVP
 70
64
  9
$PINSBASE
 10
0.0
 20
0.0
 30
0.0
  9
$PLIMCHECK
 70
0
  9
$PEXTMIN
 10
1e+20
 20
1e+20
 30
1e+20
  9
$PEXTMAX
 10
-1e+20
 20
-1e+20
 30
-1e+20
  9
$PLIMMIN
 10
0.0
 20
0.0
  9
$PLIMMAX
 10
420.0
 20
297.0
  9
$UNITMODE
 70
0
  9
$VISRETAIN
 70
1
  9
$PLINEGEN
 70
0
  9
$PSLTSCALE
 70
1
  9
$TREEDEPTH
 70
3020
  9
$CMLSTYLE
  2
Standard
  9
$CMLJUST
 70
0
  9
$CMLSCALE
 40
20.0
  9
$PROXYGRAPHICS
 70
1
  9
$MEASUREMENT
 70
1
  9
$CELWEIGHT
370
-1
  9
$ENDCAPS
280
0
  9
$JOINSTYLE
280
0
  9
$LWDISPLAY
290
0
  9
$INSUNITS
 70
6
  9
$HYPERLINKBASE
  1

  9
$STYLESHEET
  1

  9
$XEDIT
290
1
  9
$CEPSNTYPE
380
0
  9
$PSTYLEMODE
290
1
  9
$FINGERPRINTGUID
  2
{3BBB6AE4-5D08-4CB5-B1DE-48678308AD12}
  9
$VERSIONGUID
  2
{126B21F5-D311-4B92-8A72-3E4F2DBD7CF5}
  9
$EXTNAMES
290
1
  9
$PSVPSCALE
 40
0.0
  9
$OLESTARTUP
290
0
  9
$SORTENTS
280
127
  9
$INDEXCTL
280
0
  9
$HIDETEXT
280
1
  9
$XCLIPFRAME
280
0
  9
$HALOGAP
280
0
  9
$OBSCOLOR
 70
257
  9
$OBSLTYPE
280
0
  9
$INTERSECTIONDISPLAY
280
0
  9
$INTERSECTIONCOLOR
 70
257
  9
$DIMASSOC
280
2
  9
$PROJECTNAME
  1

  9
$CAMERADISPLAY
290
0
  9
$LENSLENGTH
 40
50.0
  9
$CAMERAHEIGHT
 40
0.0
  9
$STEPSPERSEC
 40
24.0
  9
$STEPSIZE
 40
100.0
  9
$3DDWFPREC
 40
2.0
  9
$PSOLWIDTH
 40
0.005
  9
$PSOLHEIGHT
 40
0.08
  9
$LOFTANG1
 40
1.570796326795
  9
$LOFTANG2
 40
1.570796326795
  9
$LOFTMAG1
 40
0.0
  9
$LOFTMAG2
 40
0.0
  9
$LOFTPARAM
 70
7
  9
$LOFTNORMALS
280
1
  9
$LATITUDE
 40
37.795
  9
$LONGITUDE
 40
-122.394
  9
$NORTHDIRECTION
 40
0.0
  9
$TIMEZONE
 70
-8000
  9
$LIGHTGLYPHDISPLAY
280
1
  9
$TILEMODELIGHTSYNCH
280
1
  9
$CMATERIAL
347
20
  9
$SOLIDHIST
280
0
  9
$SHOWHIST
280
1
  9
$DWFFRAME
280
2
  9
$DGNFRAME
280
2
  9
$REALWORLDSCALE
290
1
  9
$INTERFERECOLOR
 62
256
  9
$CSHADOW
280
0
  9
$SHADOWPLANELOCATION
 40
0.0
  0
ENDSEC
  0
SECTION
  2
CLASSES
  0
CLASS
  1
ACDBDICTIONARYWDFLT
  2
AcDbDictionaryWithDefault
  3
ObjectDBX Classes
 90
0
 91
0
280
0
281
0
  0
CLASS
  1
SUN
  2
AcDbSun
  3
SCENEOE
 90
1153
 91
0
280
0
281
0
  0
CLASS
  1
VISUALSTYLE
  2
AcDbVisualStyle
  3
ObjectDBX Classes
 90
4095
 91
0
280
0
281
0
  0
CLASS
  1
MATERIAL
  2
AcDbMaterial
  3
ObjectDBX Classes
 90
1153
 91
0
280
0
281
0
  0
CLASS
  1
SCALE
  2
AcDbScale
  3
ObjectDBX Classes
 90
1153
 91
0
280
0
281
0
  0
CLASS
  1
TABLESTYLE
  2
AcDbTableStyle
  3
ObjectDBX Classes
 90
4095
 91
0
280
0
281
0
  0
CLASS
  1
MLEADERSTYLE
  2
AcDbMLeaderStyle
  3
ACDB_MLEADERSTYLE_CLASS
 90
4095
 91
0
280
0
281
0
  0
CLASS
  1
DICTIONARYVAR
  2
AcDbDictionaryVar
  3
ObjectDBX Classes
 90
0
 91
0
280
0
281
0
  0
CLASS
  1
CELLSTYLEMAP
  2
AcDbCellStyleMap
  3
ObjectDBX Classes
 90
1152
 91
0
280
0
281
0
  0
CLASS
  1
MENTALRAYRENDERSETTINGS
  2
AcDbMentalRayRenderSettings
  3
SCENEOE
 90
1024
 91
0
280
0
281
0
  0
CLASS
  1
ACDBDETAILVIEWSTYLE
  2
AcDbDetailViewStyle
  3
ObjectDBX Classes
 90
1025
 91
0
280
0
281
0
  0
CLASS
  1
ACDBSECTIONVIEWSTYLE
  2
AcDbSectionViewStyle
  3
ObjectDBX Classes
 90
1025
 91
0
280
0
281
0
  0
CLASS
  1
RASTERVARIABLES
  2
AcDbRasterVariables
  3
ISM
 90
0
 91
0
280
0
281
0
  0
CLASS
  1
ACDBPLACEHOLDER
  2
AcDbPlaceHolder
  3
ObjectDBX Classes
 90
0
 91
0
280
0
281
0
  0
CLASS
  1
LAYOUT
  2
AcDbLayout
  3
ObjectDBX Classes
 90
0
 91
0
280
0
281
0
  0
ENDSEC
  0
SECTION
  2
TABLES
  0
TABLE
  2
VPORT
  5
8
330
0
100
AcDbSymbolTable
 70
1
  0
VPORT
  5
23
330
8
100
AcDbSymbolTableRecord
100
AcDbViewportTableRecord
  2
*Active
 70
0
 10
0.0
 20
0.0
 11
1.0
 21
1.0
 12
0.0
 22
0.0
 13
0.0
 23
0.0
 14
0.5
 24
0.5
 15
0.5
 25
0.5
 16
0.0
 26
0.0
 36
1.0
 17
0.0
 27
0.0
 37
0.0
 40
1000.0
 41
1.34
 42
50.0
 43
0.0
 44
0.0
 50
0.0
 51
0.0
 71
0
 72
1000
 73
1
 74
3
 75
0
 76
0
 77
0
 78
0
281
0
 65
0
146
0.0
  0
ENDTAB
  0
TABLE
  2
LTYPE
  5
2
330
0
100
AcDbSymbolTable
 70
3
  0
LTYPE
  5
24
330
2
100
AcDbSymbolTableRecord
100
AcDbLinetypeTableRecord
  2
ByBlock
 70
0
  3

 72
65
 73
0
 40
0.0
  0
LTYPE
  5
25
330
2
100
AcDbSymbolTableRecord
100
AcDbLinetypeTableRecord
  2
ByLayer
 70
0
  3

 72
65
 73
0
 40
0.0
  0
LTYPE
  5
26
330
2
100
AcDbSymbolTableRecord
100
AcDbLinetypeTableRecord
  2
Continuous
 70
0
  3

 72
65
 73
0
 40
0.0
  0
ENDTAB
  0
TABLE
  2
LAYER
  5
1
330
0
100
AcDbSymbolTable
 70
2
  0
LAYER
  5
27
330
1
100
AcDbSymbolTableRecord
100
AcDbLayerTableRecord
  2
0
 70
0
 62
7
  6
Continuous
370
-3
390
13
347
21
  0
LAYER
  5
28
330
1
100
AcDbSymbolTableRecord
100
AcDbLayerTableRecord
  2
Defpoints
 70
0
 62
7
  6
Continuous
290
0
370
-3
390
13
347
21
  0
ENDTAB
  0
TABLE
  2
STYLE
  5
5
330
0
100
AcDbSymbolTable
 70
1
  0
STYLE
  5
29
330
5
100
AcDbSymbolTableRecord
100
AcDbTextStyleTableRecord
  2
Standard
 70
0
 40
0.0
 41
1.0
 50
0.0
 71
0
 42
2.5
  3
txt
  4

  0
ENDTAB
  0
TABLE
  2
VIEW
  5
7
330
0
100
AcDbSymbolTable
 70
0
  0
ENDTAB
  0
TABLE
  2
UCS
  5
6
330
0
100
AcDbSymbolTable
 70
0
  0
ENDTAB
  0
TABLE
  2
APPID
  5
3
330
0
100
AcDbSymbolTable
 70
3
  0
APPID
  5
2A
330
3
100
AcDbSymbolTableRecord
100
AcDbRegAppTableRecord
  2
ACAD
 70
0
  0
APPID
  5
30
330
3
100
AcDbSymbolTableRecord
100
AcDbRegAppTableRecord
  2
HATCHBACKGROUNDCOLOR
 70
0
  0
APPID
  5
31
330
3
100
AcDbSymbolTableRecord
100
AcDbRegAppTableRecord
  2
EZDXF
 70
0
  0
ENDTAB
  0
TABLE
  2
DIMSTYLE
  5
4
330
0
100
AcDbSymbolTable
 70
1
100
AcDbDimStyleTable
  0
DIMSTYLE
105
2B
330
4
100
AcDbSymbolTableRecord
100
AcDbDimStyleTableRecord
  2
Standard
 70
0
 40
1.0
 41
2.5
 42
0.625
 43
3.75
 44
1.25
 45
0.0
 46
0.0
 47
0.0
 48
0.0
 49
2.5
140
2.5
141
2.5
142
0.0
143
0.03937007874
144
1.0
145
0.0
146
1.0
147
0.625
148
0.0
 69
0
 70
0
 71
0
 72
0
 73
0
 74
0
 75
0
 76
0
 77
1
 78
8
 79
3
170
0
171
3
172
1
173
0
174
0
175
0
176
0
177
0
178
0
179
2
271
2
272
2
273
2
274
3
275
0
276
0
277
2
278
44
279
0
280
0
281
0
282
0
283
0
284
8
285
0
286
0
288
0
289
3
290
0
371
-2
372
-2
  0
ENDTAB
  0
TABLE
  2
BLOCK_RECORD
  5
9
330
0
100
AcDbSymbolTable
 70
2
  0
BLOCK_RECORD
  5
17
330
9
100
AcDbSymbolTableRecord
100
AcDbBlockTableRecord
  2
*Model_Space
340
1A
 70
0
280
1
281
0
  0
BLOCK_RECORD
  5
1B
330
9
100
AcDbSymbolTableRecord
100
AcDbBlockTableRecord
  2
*Paper_Space
340
1E
 70
0
280
1
281
0
  0
ENDTAB
  0
ENDSEC
  0
SECTION
  2
BLOCKS
  0
BLOCK
  5
18
330
17
100
AcDbEntity
  8
0
100
AcDbBlockBegin
  2
*Model_Space
 70
0
 10
0.0
 20
0.0
 30
0.0
  3
*Model_Space
  1

  0
ENDBLK
  5
19
330
17
100
AcDbEntity
  8
0
100
AcDbBlockEnd
  0
BLOCK
  5
1C
330
1B
100
AcDbEntity
  8
0
100
AcDbBlockBegin
  2
*Paper_Space
 70
0
 10
0.0
 20
0.0
 30
0.0
  3
*Paper_Space
  1

  0
ENDBLK
  5
1D
330
1B
100
AcDbEntity
  8
0
100
AcDbBlockEnd
  0
ENDSEC
  0
SECTION
  2
ENTITIES
  0
LWPOLYLINE
  5
2F
330
17
100
AcDbEntity
  8
0
100
AcDbPolyline
 90
256
 70
1
 10
-127.5693576464748
 20
-250.0
 10
-127.9992252939323
 20
-245.1988687192375
 10
-127.9992252939323
 20
-245.1988687192375
 10
-124.34032870706201
 20
-230.0
 10
-134.340328707062
 20
-230.0
 10
-134.340328707062
 20
-227.0
 10
-123.6181243138681
 20
-227.0
 10
-122.0011738402393
 20
-220.2832706826474
 10
-122.0011738402393
 20
-220.2832706826474
 10
-120.23900756756524
 20
-213.97058823529412
 10
-130.23900756756524
 20
-213.97058823529412
 10
-130.23900756756524
 20
-210.97058823529412
 10
-119.40156661245452
 20
-210.97058823529412
 10
-118.9797977543183
 20
-209.4596678931652
 10
-118.9797977543183
 20
-209.4596678931652
 10
-115.0772526745248
 20
-197.94117647058823
 10
-125.0772526745248
 20
-197.94117647058823
 10
-125.0772526745248
 20
-194.94117647058823
 10
-113.90503493332939
 20
-194.94117647058823
 10
-109.8548912897315
 20
-185.5883443974587
 10
-109.8548912897315
 20
-185.5883443974587
 10
-108.62361898411238
 20
-181.91176470588238
 10
-118.62361898411238
 20
-181.91176470588238
 10
-118.62361898411238
 20
-178.91176470588238
 10
-107.61893059796901
 20
-178.91176470588238
 10
-106.734580161995
 20
-176.2710938824581
 10
-106.734580161995
 20
-176.2710938824581
 10
-101.41127290933231
 20
-165.88235294117646
 10
-111.41127290933231
 20
-165.88235294117646
 10
-111.41127290933231
 20
-162.88235294117646
 10
-99.87403929765098
 20
-162.88235294117646
 10
-98.69405165582756
 20
-160.5795390431649
 10
-98.69405165582756
 20
-160.5795390431649
 10
-92.56500048533289
 20
-149.8529411764706
 10
-102.56500048533289
 20
-149.8529411764706
 10
-102.56500048533289
 20
-146.8529411764706
 10
-90.85083596271426
 20
-146.8529411764706
 10
-88.92055016331047
 20
-143.4747022024397
 10
-88.92055016331047
 20
-143.4747022024397
 10
-83.75045055616643
 20
-134.1928540501766
 10
-83.75045055616643
 20
-134.1928540501766
 10
-83.56466292362369
 20
-133.82352941176472
 10
-93.56466292362369
 20
-133.82352941176472
 10
-93.56466292362369
 20
-130.82352941176472
 10
-82.0555220766309
 20
-130.82352941176472
 10
-75.50111624116218
 20
-117.79411764705884
 10
-85.50111624116218
 20
-117.79411764705884
 10
-85.50111624116218
 20
-114.79411764705884
 10
-73.99197539416937
 20
-114.79411764705884
 10
-72.87115111522066
 20
-112.5660467260799
 10
-72.87115111522066
 20
-112.5660467260799
 10
-72.10092630419823
 20
-109.8658876996553
 10
-72.10092630419823
 20
-109.8658876996553
 10
-71.25336397194792
 20
-104.2310932288142
 10
-71.25336397194792
 20
-104.2310932288142
 10
-70.65117205965139
 20
-101.76470588235296
 10
-80.65117205965139
 20
-101.76470588235296
 10
-80.65117205965139
 20
-98.76470588235296
 10
-69.91869354629799
 20
-98.76470588235296
 10
-69.0085203218833
 20
-95.03692462533928
 10
-69.0085203218833
 20
-95.03692462533928
 10
-68.53127565098788
 20
-89.88371332773193
 10
-68.53127565098788
 20
-89.88371332773193
 10
-68.67995208811263
 20
-85.73529411764707
 10
-78.67995208811263
 20
-85.73529411764707
 10
-78.67995208811263
 20
-82.73529411764707
 10
-68.87132391341713
 20
-82.73529411764707
 10
-69.40829991517579
 20
-75.03098407297888
 10
-69.40829991517579
 20
-75.03098407297888
 10
-70.59557478150175
 20
-70.68855717798314
 10
-70.59557478150175
 20
-70.68855717798314
 10
-70.84887692591877
 20
-69.70588235294119
 10
-80.84887692591877
 20
-69.70588235294119
 10
-80.84887692591877
 20
-66.70588235294119
 10
-71.62218098732957
 20
-66.70588235294119
 10
-72.73170912759035
 20
-62.40151543327211
 10
-72.73170912759035
 20
-62.40151543327211
 10
-73.49450068060226
 20
-59.80730499593938
 10
-73.49450068060226
 20
-59.80730499593938
 10
-74.84221040449016
 20
-53.676470588235304
 10
-84.84221040449016
 20
-53.676470588235304
 10
-84.84221040449016
 20
-50.676470588235304
 10
-75.59938295732567
 20
-50.676470588235304
 10
-75.62018394042363
 20
-50.60169829712422
 10
-75.62018394042363
 20
-50.60169829712422
 10
-78.12941824093411
 20
-42.33027660872896
 10
-78.12941824093411
 20
-42.33027660872896
 10
-78.25402082594421
 20
-41.97375483573856
 10
-78.25402082594421
 20
-41.97375483573856
 10
-78.73165112609153
 20
-40.72021964439911
 10
-78.73165112609153
 20
-40.72021964439911
 10
-79.67294996678872
 20
-37.64705882352945
 10
-89.67294996678872
 20
-37.64705882352945
 10
-89.67294996678872
 20
-34.64705882352945
 10
-80.59183989370521
 20
-34.64705882352945
 10
-80.84965091142351
 20
-33.8053551215961
 10
-80.84965091142351
 20
-33.8053551215961
 10
-81.5710375165401
 20
-31.85921266586589
 10
-81.5710375165401
 20
-31.85921266586589
 10
-84.35200461905742
 20
-23.88790619344407
 10
-84.35200461905742
 20
-23.88790619344407
 10
-85.17722599283888
 20
-21.617647058823565
 10
-95.17722599283888
 20
-21.617647058823565
 10
-95.17722599283888
 20
-18.617647058823565
 10
-86.26770244268178
 20
-18.617647058823565
 10
-86.33188307081299
 20
-18.44108030727072
 10
-86.33188307081299
 20
-18.44108030727072
 10
-88.26588062271867
 20
-13.13202016990649
 10
-88.26588062271867
 20
-13.13202016990649
 10
-91.82884511728683
 20
-5.5882352941176805
 10
-101.82884511728683
 20
-5.5882352941176805
 10
-101.82884511728683
 20
-2.5882352941176805
 10
-93.2457589953601
 20
-2.5882352941176805
 10
-93.94230405124527
 20
-1.11345605736056
 10
-93.94230405124527
 20
-1.11345605736056
 10
-94.06896599993871
 20
-0.8180323027065645
 10
-94.06896599993871
 20
-0.8180323027065645
 10
-94.31799627037965
 20
-0.3268922957280346
 10
-94.31799627037965
 20
-0.3268922957280346
 10
-98.75219272654994
 20
10.441176470588204
 10
-108.75219272654994
 20
10.441176470588204
 10
-108.75219272654994
 20
13.441176470588204
 10
-99.98756646507238
 20
13.441176470588204
 10
-101.5001572926876
 20
17.11437458169022
 10
-101.5001572926876
 20
17.11437458169022
 10
-104.3452576789244
 20
23.23979688660996
 10
-104.3452576789244
 20
23.23979688660996
 10
-105.35796165396013
 20
26.470588235294088
 10
-115.35796165396013
 20
26.470588235294088
 10
-115.35796165396013
 20
29.470588235294088
 10
-106.29832319304393
 20
29.470588235294088
 10
-108.8947617142219
 20
37.75390825614811
 10
-108.8947617142219
 20
37.75390825614811
 10
-111.01305818947893
 20
42.49999999999994
 10
-121.01305818947893
 20
42.49999999999994
 10
-121.01305818947893
 20
45.49999999999994
 10
-112.35203134228477
 20
45.49999999999994
 10
-114.5976764544025
 20
50.53141927994276
 10
-114.5976764544025
 20
50.53141927994276
 10
-115.2558795018151
 20
55.17010632792748
 10
-115.2558795018151
 20
55.17010632792748
 10
-115.91435263339038
 20
58.529411764705856
 10
-125.91435263339038
 20
58.529411764705856
 10
-125.91435263339038
 20
61.529411764705856
 10
-116.50239662995541
 20
61.529411764705856
 10
-119.05635241895845
 20
74.55882352941171
 10
-129.05635241895845
 20
74.55882352941171
 10
-129.05635241895845
 20
77.55882352941171
 10
-119.64439641552349
 20
77.55882352941171
 10
-119.7389139491369
 20
78.04101976387129
 10
-119.7389139491369
 20
78.04101976387129
 10
-120.3287229693768
 20
84.3325402249148
 10
-120.3287229693768
 20
84.3325402249148
 10
-121.57262866478621
 20
90.58823529411762
 10
-131.5726286647862
 20
90.58823529411762
 10
-131.5726286647862
 20
93.58823529411762
 10
-122.1691598327774
 20
93.58823529411762
 10
-124.0715648656176
 20
103.1555729367418
 10
-124.0715648656176
 20
103.1555729367418
 10
-124.98579026243559
 20
106.61764705882348
 10
-134.9857902624356
 20
106.61764705882348
 10
-134.9857902624356
 20
109.61764705882348
 10
-125.7684072116126
 20
109.61764705882348
 10
-128.86150912005533
 20
122.64705882352939
 10
-138.86150912005533
 20
122.64705882352939
 10
-138.86150912005533
 20
125.64705882352939
 10
-129.2080937314428
 20
125.64705882352939
 10
-129.7523855729002
 20
130.5395202094611
 10
-129.7523855729002
 20
130.5395202094611
 10
-130.36741449463275
 20
138.67647058823525
 10
-140.36741449463275
 20
138.67647058823525
 10
-140.36741449463275
 20
141.67647058823525
 10
-130.5240014582077
 20
141.67647058823525
 10
-130.7010538928155
 20
149.8160489959434
 10
-130.7010538928155
 20
149.8160489959434
 10
-130.55343209550992
 20
154.7058823529411
 10
-140.55343209550992
 20
154.7058823529411
 10
-140.55343209550992
 20
157.7058823529411
 10
-130.39324689879103
 20
157.7058823529411
 10
-129.3528877297715
 20
166.9724221595427
 10
-129.3528877297715
 20
166.9724221595427
 10
-128.87790138850445
 20
170.73529411764702
 10
-138.87790138850445
 20
170.73529411764702
 10
-138.87790138850445
 20
173.73529411764702
 10
-128.57070282923183
 20
173.73529411764702
 10
-127.5730951817826
 20
184.0055639031106
 10
-127.5730951817826
 20
184.0055639031106
 10
-127.4028450600569
 20
185.3639351294239
 10
-127.4028450600569
 20
185.3639351294239
 10
-127.14406726658073
 20
186.76470588235287
 10
-137.14406726658075
 20
186.76470588235287
 10
-137.14406726658075
 20
189.76470588235287
 10
-126.58984854177854
 20
189.76470588235287
 10
-126.2624833995044
 20
191.5367416921731
 10
-126.2624833995044
 20
191.5367416921731
 10
-124.1926577094981
 20
198.9501363622995
 10
-124.1926577094981
 20
198.9501363622995
 10
-123.5015653161959
 20
201.010455283211
 10
-123.5015653161959
 20
201.010455283211
 10
-122.72557227247377
 20
202.79411764705878
 10
-132.72557227247376
 20
202.79411764705878
 10
-132.72557227247376
 20
205.79411764705878
 10
-121.4204042214171
 20
205.79411764705878
 10
-117.8775061419653
 20
213.937662250185
 10
-117.8775061419653
 20
213.937662250185
 10
-115.50047920211676
 20
218.82352941176464
 10
-125.50047920211676
 20
218.82352941176464
 10
-125.50047920211676
 20
221.82352941176464
 10
-114.0409469259179
 20
221.82352941176464
 10
-112.578661695202
 20
224.8291879803936
 10
-112.578661695202
 20
224.8291879803936
 10
-109.8118207058197
 20
230.5940518755065
 10
-109.8118207058197
 20
230.5940518755065
 10
-107.33675311156075
 20
234.85294117647055
 10
-117.33675311156075
 20
234.85294117647055
 10
-117.33675311156075
 20
237.85294117647055
 10
-105.59329319559252
 20
237.85294117647055
 10
-104.71694334303
 20
239.360890704652
 10
-104.71694334303
 20
239.360890704652
 10
-95.87982201684963
 20
247.7501374150838
 10
-95.87982201684963
 20
247.7501374150838
 10
-93.64002054731476
 20
250.8823529411764
 10
-103.64002054731476
 20
250.8823529411764
 10
-103.64002054731476
 20
253.8823529411764
 10
-91.16756262555089
 20
253.8823529411764
 10
-82.4157401776309
 20
261.827190274075
 10
-82.4157401776309
 20
261.827190274075
 10
-78.87439484254179
 20
266.9117647058823
 10
-88.87439484254179
 20
266.9117647058823
 10
-88.87439484254179
 20
269.9117647058823
 10
-76.78493069018184
 20
269.9117647058823
 10
-75.97338556825048
 20
271.0769607505449
 10
-75.97338556825048
 20
271.0769607505449
 10
-72.06466222510934
 20
274.8328385333717
 10
-72.06466222510934
 20
274.8328385333717
 10
-65.54770310188027
 20
282.9411764705882
 10
-75.54770310188027
 20
282.9411764705882
 10
-75.54770310188027
 20
285.9411764705882
 10
-62.613853765465976
 20
285.9411764705882
 10
-62.0365846115281
 20
286.4495464661699
 10
-62.0365846115281
 20
286.4495464661699
 10
-55.34528283496117
 20
294.5637188345075
 10
-55.34528283496117
 20
294.5637188345075
 10
-53.47864363863719
 20
296.4653908246665
 10
-53.47864363863719
 20
296.4653908246665
 10
-51.4670806197257
 20
298.97058823529403
 10
-61.4670806197257
 20
298.97058823529403
 10
-61.4670806197257
 20
301.97058823529403
 10
-49.058212946809334
 20
301.97058823529403
 10
-47.38636834202506
 20
304.0527008688538
 10
-47.38636834202506
 20
304.0527008688538
 10
-45.50741727852255
 20
306.0881076677894
 10
-45.50741727852255
 20
306.0881076677894
 10
-40.57486424502955
 20
314.9999999999999
 10
-1.2468039244413411
 20
314.9999999999999
 10
-1.2468039244413411
 20
-250.0
  0
ENDSEC
  0
SECTION
  2
OBJECTS
  0
DICTIONARY
  5
A
330
0
100
AcDbDictionary
281
1
  3
ACAD_COLOR
350
B
  3
ACAD_GROUP
350
C
  3
ACAD_LAYOUT
350
D
  3
ACAD_MATERIAL
350
E
  3
ACAD_MLEADERSTYLE
350
F
  3
ACAD_MLINESTYLE
350
10
  3
ACAD_PLOTSETTINGS
350
11
  3
ACAD_PLOTSTYLENAME
350
12
  3
ACAD_SCALELIST
350
14
  3
ACAD_TABLESTYLE
350
15
  3
ACAD_VISUALSTYLE
350
16
  3
EZDXF_META
350
2D
  0
DICTIONARY
  5
B
330
A
100
AcDbDictionary
281
1
  0
DICTIONARY
  5
C
330
A
100
AcDbDictionary
281
1
  0
DICTIONARY
  5
D
330
A
100
AcDbDictionary
281
1
  3
Model
350
1A
  3
Layout1
350
1E
  0
DICTIONARY
  5
E
330
A
100
AcDbDictionary
281
1
  3
ByBlock
350
1F
  3
ByLayer
350
20
  3
Global
350
21
  0
DICTIONARY
  5
F
330
A
100
AcDbDictionary
281
1
  3
Standard
350
2C
  0
DICTIONARY
  5
10
330
A
100
AcDbDictionary
281
1
  3
Standard
350
22
  0
DICTIONARY
  5
11
330
A
100
AcDbDictionary
281
1
  0
ACDBDICTIONARYWDFLT
  5
12
330
A
100
AcDbDictionary
281
1
  3
Normal
350
13
100
AcDbDictionaryWithDefault
340
13
  0
ACDBPLACEHOLDER
  5
13
330
12
  0
DICTIONARY
  5
14
330
A
100
AcDbDictionary
281
1
  0
DICTIONARY
  5
15
330
A
100
AcDbDictionary
281
1
  0
DICTIONARY
  5
16
330
A
100
AcDbDictionary
281
1
  0
LAYOUT
  5
1A
330
D
100
AcDbPlotSettings
  1

  2
Adobe PDF
  4
A3
  6

 40
7.5
 41
20.0
 42
7.5
 43
20.0
 44
420.0
 45
297.0
 46
0.0
 47
0.0
 48
0.0
 49
0.0
140
0.0
141
0.0
142
1.0
143
1.0
 70
1024
 72
1
 73
1
 74
5
  7

 75
16
 76
0
 77
2
 78
300
147
1.0
148
0.0
149
0.0
100
AcDbLayout
  1
Model
 70
1
 71
0
 10
0.0
 20
0.0
 11
420.0
 21
297.0
 12
0.0
 22
0.0
 32
0.0
 14
1e+20
 24
1e+20
 34
1e+20
 15
-1e+20
 25
-1e+20
 35
-1e+20
146
0.0
 13
0.0
 23
0.0
 33
0.0
 16
1.0
 26
0.0
 36
0.0
 17
0.0
 27
1.0
 37
0.0
 76
1
330
17
  0
LAYOUT
  5
1E
330
D
100
AcDbPlotSettings
  1

  2
Adobe PDF
  4
A3
  6

 40
7.5
 41
20.0
 42
7.5
 43
20.0
 44
420.0
 45
297.0
 46
0.0
 47
0.0
 48
0.0
 49
0.0
140
0.0
141
0.0
142
1.0
143
1.0
 70
0
 72
1
 73
1
 74
5
  7

 75
16
 76
0
 77
2
 78
300
147
1.0
148
0.0
149
0.0
100
AcDbLayout
  1
Layout1
 70
1
 71
1
 10
0.0
 20
0.0
 11
420.0
 21
297.0
 12
0.0
 22
0.0
 32
0.0
 14
1e+20
 24
1e+20
 34
1e+20
 15
-1e+20
 25
-1e+20
 35
-1e+20
146
0.0
 13
0.0
 23
0.0
 33
0.0
 16
1.0
 26
0.0
 36
0.0
 17
0.0
 27
1.0
 37
0.0
 76
1
330
1B
  0
MATERIAL
  5
1F
102
{ACAD_REACTORS
330
E
102
}
330
E
100
AcDbMaterial
  1
ByBlock
  2

 70
0
 40
1.0
 71
1
 41
1.0
 91
-1023410177
 42
1.0
 72
1
  3

 73
1
 74
1
 75
1
 44
0.5
 73
0
 45
1.0
 46
1.0
 77
1
  4

 78
1
 79
1
170
1
 48
1.0
171
1
  6

172
1
173
1
174
1
140
1.0
141
1.0
175
1
  7

176
1
177
1
178
1
143
1.0
179
1
  8

270
1
271
1
272
1
145
1.0
146
1.0
273
1
  9

274
1
275
1
276
1
 42
1.0
 72
1
  3

 73
1
 74
1
 75
1
 94
63
  0
MATERIAL
  5
20
102
{ACAD_REACTORS
330
E
102
}
330
E
100
AcDbMaterial
  1
ByLayer
  2

 70
0
 40
1.0
 71
1
 41
1.0
 91
-1023410177
 42
1.0
 72
1
  3

 73
1
 74
1
 75
1
 44
0.5
 73
0
 45
1.0
 46
1.0
 77
1
  4

 78
1
 79
1
170
1
 48
1.0
171
1
  6

172
1
173
1
174
1
140
1.0
141
1.0
175
1
  7

176
1
177
1
178
1
143
1.0
179
1
  8

270
1
271
1
272
1
145
1.0
146
1.0
273
1
  9

274
1
275
1
276
1
 42
1.0
 72
1
  3

 73
1
 74
1
 75
1
 94
63
  0
MATERIAL
  5
21
102
{ACAD_REACTORS
330
E
102
}
330
E
100
AcDbMaterial
  1
Global
  2

 70
0
 40
1.0
 71
1
 41
1.0
 91
-1023410177
 42
1.0
 72
1
  3

 73
1
 74
1
 75
1
 44
0.5
 73
0
 45
1.0
 46
1.0
 77
1
  4

 78
1
 79
1
170
1
 48
1.0
171
1
  6

172
1
173
1
174
1
140
1.0
141
1.0
175
1
  7

176
1
177
1
178
1
143
1.0
179
1
  8

270
1
271
1
272
1
145
1.0
146
1.0
273
1
  9

274
1
275
1
276
1
 42
1.0
 72
1
  3

 73
1
 74
1
 75
1
 94
63
  0
MLINESTYLE
  5
22
102
{ACAD_REACTORS
330
10
102
}
330
10
100
AcDbMlineStyle
  2
Standard
 70
0
  3

 62
256
 51
90.0
 52
90.0
 71
2
 49
0.5
 62
256
  6
BYLAYER
 49
-0.5
 62
256
  6
BYLAYER
  0
MLEADERSTYLE
  5
2C
102
{ACAD_REACTORS
330
F
102
}
330
F
100
AcDbMLeaderStyle
179
2
170
2
171
1
172
0
 90
2
 40
0.0
 41
0.0
173
1
 91
-1056964608
 92
-2
290
1
 42
2.0
291
1
 43
8.0
  3
Standard
 44
4.0
300

342
29
174
1
175
1
176
0
178
1
 93
-1056964608
 45
4.0
292
0
297
0
 46
4.0
 94
-1056964608
 47
1.0
 49
1.0
140
1.0
294
1
141
0.0
177
0
142
1.0
295
0
296
0
143
3.75
271
0
272
9
273
9
  0
DICTIONARY
  5
2D
330
A
100
AcDbDictionary
280
1
281
1
  3
CREATED_BY_EZDXF
350
2E
  3
WRITTEN_BY_EZDXF
350
32
  0
DICTIONARYVAR
  5
2E
330
2D
100
DictionaryVariables
280
0
  1
0.18.1 @ 2022-10-17T13:42:25.632959+00:00
  0
DICTIONARYVAR
  5
32
330
2D
100
DictionaryVariables
280
0
  1
0.18.1 @ 2022-10-17T13:42:25.634112+00:00
  0
ENDSEC
  0
EOF
